<svg width="20" height="20" viewBox="0 0 20 20" fill="none" xmlns="http://www.w3.org/2000/svg">
<g clip-path="url(#clip0_1189_16743)">
<path d="M18.2185 3.45356C15.4668 2.69958 12.6989 1.52555 10.214 0.0584472C10.082 -0.0194824 9.9182 -0.0194824 9.78624 0.0584472C7.22969 1.5677 4.61133 2.67821 1.78145 3.45356C1.59864 3.5036 1.47192 3.66977 1.47192 3.85934V8.158C1.47192 12.5847 3.51407 15.5148 5.22727 17.1934C7.07164 19.0006 9.22007 20 10.0001 20C10.7801 20 12.9285 19.0006 14.7729 17.1934C16.486 15.5149 18.5281 12.5847 18.5281 8.158V3.8593C18.5281 3.66977 18.4013 3.5036 18.2185 3.45356ZM17.6867 8.15796C17.6867 12.2924 15.7819 15.0266 14.184 16.5923C12.3703 18.3695 10.4311 19.1585 10.0001 19.1585C9.56913 19.1585 7.62984 18.3695 5.8161 16.5923C4.21817 15.0266 2.31337 12.2924 2.31337 8.15796V4.17867C5.01953 3.41032 7.53976 2.33801 10.0002 0.908211C12.3992 2.30008 15.0451 3.42571 17.6867 4.17852V8.15796Z" fill="white"/>
<path d="M6.27105 4.13138C6.1859 3.91517 5.94164 3.80896 5.72539 3.89415C4.97383 4.19029 4.20242 4.46286 3.43262 4.70435C3.25719 4.75943 3.13782 4.92193 3.13782 5.10575V6.7304C3.13782 6.96274 3.32622 7.1511 3.55852 7.1511C3.79082 7.1511 3.97922 6.96274 3.97922 6.7304V5.41321C4.66981 5.18978 5.35965 4.94263 6.03383 4.67697C6.25004 4.59185 6.35625 4.34759 6.27105 4.13138Z" fill="white"/>
<path d="M7.07022 4.21121C7.12667 4.21121 7.18397 4.19985 7.23893 4.17586L7.24667 4.1725C7.45952 4.07922 7.55538 3.83145 7.4621 3.61868C7.36874 3.40583 7.11956 3.30954 6.90694 3.40274L6.90015 3.40567C6.68718 3.49868 6.59101 3.74625 6.68401 3.95914C6.75304 4.11719 6.90792 4.21121 7.07022 4.21121Z" fill="white"/>
<path d="M15.0126 13.5656C14.8182 13.4385 14.5575 13.4932 14.4302 13.6877C14.0836 14.2183 13.6769 14.7264 13.2212 15.1978C12.8465 15.5854 12.4405 15.9466 12.0145 16.2714C11.8297 16.4123 11.7942 16.6763 11.935 16.8611C12.0179 16.9696 12.1431 17.0267 12.2699 17.0267C12.3588 17.0267 12.4485 16.9987 12.5247 16.9405C12.9842 16.5901 13.4221 16.2005 13.8261 15.7826C14.3187 15.2731 14.759 14.7231 15.1347 14.1479C15.2618 13.9534 15.2071 13.6927 15.0126 13.5656Z" fill="white"/>
<path d="M11.0374 16.9312L11.0132 16.9454C10.8122 17.0619 10.7435 17.3192 10.8599 17.5203C10.9379 17.6551 11.0791 17.7303 11.2244 17.7303C11.2959 17.7303 11.3684 17.712 11.4347 17.6736L11.4626 17.6572C11.6631 17.5398 11.7304 17.2821 11.613 17.0816C11.4955 16.8812 11.2378 16.8139 11.0374 16.9312Z" fill="white"/>
<path d="M7.1324 9.1414C6.87408 8.88304 6.53053 8.74085 6.16514 8.74085C5.79975 8.74085 5.45616 8.88308 5.19772 9.1414C4.6644 9.67484 4.6644 10.5428 5.19772 11.0762L7.68193 13.5603C7.94029 13.8186 8.28385 13.9608 8.64927 13.9608C9.0147 13.9608 9.35826 13.8186 9.61666 13.5603L14.8026 8.37425C15.3359 7.8407 15.3359 6.97285 14.8025 6.43961C14.5442 6.18125 14.2006 6.03906 13.8352 6.03906C13.4697 6.03906 13.1262 6.18129 12.8678 6.43961L8.64924 10.6582L7.1324 9.1414ZM13.4628 7.03461C13.5622 6.93519 13.6945 6.88047 13.8352 6.88047C13.976 6.88047 14.1082 6.93519 14.2077 7.03461C14.4129 7.23988 14.4129 7.57402 14.2076 7.77937L9.0217 12.9653C8.92228 13.0647 8.78998 13.1194 8.64927 13.1194C8.50857 13.1194 8.37627 13.0647 8.27681 12.9653L5.79268 10.4812C5.58733 10.2759 5.58733 9.94175 5.7926 9.73648C5.89205 9.63706 6.02436 9.58226 6.1651 9.58226C6.30584 9.58226 6.43807 9.63699 6.53748 9.7364L8.35174 11.5507C8.43068 11.6296 8.53763 11.6739 8.64924 11.6739C8.76084 11.6739 8.86779 11.6296 8.94666 11.5507L13.4628 7.03461Z" fill="white"/>
</g>
<defs>
<clipPath id="clip0_1189_16743">
<rect width="20" height="20" fill="white"/>
</clipPath>
</defs>
</svg>
