<svg width="3" height="9" viewBox="0 0 3 9" fill="none" xmlns="http://www.w3.org/2000/svg">
<path d="M1.80725 5.90531H0.332438L0.0241773 0H2.11551L1.80725 5.90531ZM0 7.97246C0 7.59369 0.102754 7.32774 0.308261 7.17461C0.517797 7.02149 0.769644 6.94493 1.0638 6.94493C1.3499 6.94493 1.5957 7.02149 1.80121 7.17461C2.01075 7.32774 2.11551 7.59369 2.11551 7.97246C2.11551 8.33512 2.01075 8.59704 1.80121 8.75823C1.5957 8.91941 1.3499 9 1.0638 9C0.769644 9 0.517797 8.91941 0.308261 8.75823C0.102754 8.59704 0 8.33512 0 7.97246Z" fill="white"/>
</svg>
