<svg width="24" height="24" viewBox="0 0 24 24" fill="none" xmlns="http://www.w3.org/2000/svg">
<path fill-rule="evenodd" clip-rule="evenodd" d="M12 3C10.4087 3 8.88258 3.63214 7.75736 4.75736C6.63214 5.88258 6 7.4087 6 9V17H1V9H4C4 6.87827 4.84285 4.84344 6.34315 3.34315C7.84344 1.84285 9.87827 1 12 1C14.1217 1 16.1566 1.84285 17.6569 3.34315C19.1571 4.84344 20 6.87827 20 9H23V17H20C20 18.3261 19.4732 19.5979 18.5355 20.5355C17.5979 21.4732 16.3261 22 15 22V23H9V19H15V20C15.7956 20 16.5587 19.6839 17.1213 19.1213C17.6839 18.5587 18 17.7956 18 17V9C18 7.4087 17.3679 5.88258 16.2426 4.75736C15.1174 3.63214 13.5913 3 12 3Z" fill="white"/>
</svg>
