<svg width="22" height="22" viewBox="0 0 22 22" fill="none" xmlns="http://www.w3.org/2000/svg">
<path d="M21.4919 9.5428L20.3025 9.43112C20.1629 8.95092 19.9731 8.49305 19.7218 8.05752L20.4756 7.14737C20.6599 6.92402 20.6431 6.60574 20.4421 6.39915L18.9569 4.89711C18.7558 4.69052 18.4264 4.67376 18.203 4.85803L17.2929 5.61184C16.8629 5.36615 16.3995 5.17072 15.9249 5.03112L15.8132 3.84737C15.7853 3.5626 15.5452 3.34483 15.2548 3.34483H13.401V1.6697C13.401 1.3626 13.1497 1.11133 12.8426 1.11133C12.5355 1.11133 12.2843 1.3626 12.2843 1.6697V4.46158H10.1736C9.27462 4.46158 8.4203 4.88595 7.8731 5.60067L5.57259 8.63265L1.70305 9.68798C0.69797 9.96158 0.00558376 10.8717 0 11.9159V13.3956C0.00558376 14.6687 1.04416 15.6961 2.31726 15.6961H2.61878C3.03756 17.254 4.6401 18.1697 6.19797 17.7509C7.19746 17.4773 7.98477 16.6956 8.25279 15.6961H12.2843V20.3306C12.2843 20.6377 12.5355 20.889 12.8426 20.889C13.1497 20.889 13.401 20.6377 13.401 20.3306V18.9905H15.2548C15.5452 18.9905 15.7853 18.7727 15.8132 18.4824L15.9249 17.2931C16.4051 17.1535 16.8629 16.9636 17.2985 16.7179L18.2086 17.4717C18.432 17.656 18.7558 17.6392 18.9569 17.4382L20.4589 15.9362C20.6599 15.7352 20.6766 15.4057 20.4924 15.1824L19.7386 14.2722C19.9843 13.8367 20.1797 13.3788 20.3193 12.9042L21.4919 12.7925C21.7766 12.7646 22 12.5245 22 12.2342V10.0956C22 9.81082 21.7766 9.57072 21.4919 9.5428ZM5.433 16.7403C4.43909 16.7403 3.62944 15.9306 3.62944 14.9367C3.62944 13.9428 4.43909 13.1332 5.433 13.1332C6.4269 13.1332 7.23655 13.9428 7.23655 14.9367C7.23655 15.9306 6.43249 16.7403 5.433 16.7403ZM12.2843 14.5738H8.33096C8.13553 12.9712 6.67817 11.8377 5.08122 12.0276C3.75228 12.1895 2.70254 13.2392 2.53503 14.5738H2.31168C1.65279 14.5793 1.11675 14.0489 1.11117 13.39V11.9159C1.11675 11.3799 1.47411 10.9108 1.9934 10.7656L6.04721 9.66006C6.16447 9.62656 6.27056 9.55955 6.34315 9.45904L8.7665 6.28189C9.10152 5.84077 9.6264 5.58392 10.1792 5.58392H12.2843V14.5738ZM13.401 8.79458C14.7076 8.35904 16.1203 9.06818 16.5558 10.3804C16.9914 11.6925 16.2822 13.0997 14.9701 13.5352C14.4619 13.7027 13.9091 13.7027 13.401 13.5352V8.79458ZM20.8832 11.7205L19.8223 11.821C19.5822 11.8433 19.3812 12.022 19.331 12.2565C19.1914 12.8819 18.9401 13.4738 18.5883 14.0098C18.4543 14.2164 18.4711 14.4788 18.6274 14.6687L19.3086 15.4951L18.5269 16.2768L17.7005 15.6012C17.5107 15.4448 17.2426 15.4281 17.036 15.5677C16.5056 15.9194 15.9137 16.1707 15.2883 16.3047C15.0482 16.355 14.8751 16.556 14.8528 16.7961L14.7523 17.8682H13.401V14.691C15.3497 15.1266 17.2817 13.8981 17.7117 11.9494C18.1472 10.0007 16.9188 8.06869 14.9701 7.63315C14.4508 7.5159 13.9147 7.5159 13.401 7.63315V4.46717H14.7467L14.8528 5.53366C14.8751 5.77376 15.0538 5.97478 15.2883 6.02503C15.9137 6.16463 16.5056 6.4159 17.0416 6.76209C17.2482 6.8961 17.5107 6.87935 17.7005 6.723L18.5213 6.04178L19.2919 6.81793L18.6051 7.64991C18.4487 7.83975 18.432 8.10777 18.5716 8.31437C18.9234 8.84483 19.1746 9.43671 19.3086 10.0621C19.3645 10.3022 19.5599 10.4753 19.8056 10.4976L20.8832 10.6037V11.7205Z" fill="white"/>
</svg>
