<svg width="95" height="57" viewBox="0 0 95 57" fill="none" xmlns="http://www.w3.org/2000/svg">
<mask id="mask0_1311_42588" style="mask-type:luminance" maskUnits="userSpaceOnUse" x="0" y="0" width="96" height="57">
<path d="M0 56.4313H95.0002V-6.90898e-05H0V56.4313Z" fill="white"/>
</mask>
<g mask="url(#mask0_1311_42588)">
<path d="M11.1307 56.4313H11.0857C9.55634 56.4214 8.15026 55.418 7.69825 53.8747L1.22991 31.8032L2.18235 31.9975L2.23246 31.9303C2.28183 31.8687 2.33968 31.7929 2.37949 31.7072L2.3898 31.6859L1.88463 31.6377L1.71414 31.6219L1.38139 31.5801L1.33033 31.6468L1.27066 31.727L1.22667 31.7921L0.144063 28.0981C0.0492061 27.7739 0.00244844 27.4465 0 27.1243V27.069C0.0118868 25.5419 1.0144 24.1384 2.55597 23.6866L19.0615 18.8497L19.0781 18.9303L19.13 18.9129L19.1511 18.9856L19.2645 18.9429L19.2228 18.8825L20.0253 18.6207C20.0194 18.6041 20.0129 18.5883 20.0057 18.5729L24.3374 17.3033C24.5734 17.4577 24.8037 17.5533 25.0609 17.5533C25.1653 17.5533 25.274 17.5375 25.3894 17.5039C25.7734 17.3913 26.1236 17.0896 26.593 16.6426L82.8897 0.144068C83.2147 0.0488925 83.5425 0.00229915 83.8655 -6.90898e-05H83.9165C85.4448 0.0109853 86.8495 1.01366 87.3017 2.55618L94.8555 28.3327C95.1201 29.2347 95.0103 30.158 94.6174 30.9356C94.6126 30.9158 94.6075 30.8957 94.6012 30.8755L94.5866 30.8416C94.4341 30.5675 94.2078 30.4475 93.9938 30.3997L93.9926 30.4005L93.9902 30.3993C93.9038 30.3803 93.8192 30.3736 93.7422 30.3736C93.6858 30.3736 93.6329 30.3772 93.587 30.3823L93.5803 30.4779L92.5239 29.9009L92.6906 30.4688L92.6649 30.468L92.8596 31.075C93.0342 31.6203 93.1669 32.0346 93.3284 32.3485C93.0594 32.5164 92.7633 32.6507 92.4438 32.7442L91.5943 32.9934L91.462 32.839L91.404 32.8686L91.3147 32.9152L91.4233 33.0436L54.6249 43.8274L54.5929 43.8163V43.8155L54.5854 43.8147L54.5925 43.8144H54.5929L54.5933 43.8132L54.4657 43.7741L54.5092 43.7322L54.5111 43.731L54.5123 43.7302L54.4555 43.761L54.3725 43.8061L54.2659 43.8029L53.9061 43.7911L53.8982 43.8171L53.8939 43.8333C53.8769 43.9087 53.8821 43.9774 53.9065 44.0379L31.79 50.5195L31.6629 50.3604C31.5584 50.4153 31.3887 50.4524 31.1817 50.4678L29.047 50.6246L30.4734 50.9053L12.1098 56.2868C11.7836 56.3823 11.4547 56.4293 11.1307 56.4313ZM9.87704 52.3756L10.1095 53.1686C10.2425 53.6227 10.659 53.9177 11.1102 53.9177C11.2073 53.9177 11.3057 53.9039 11.4033 53.8755L18.7471 51.7232L19.2228 52.1335L19.2702 52.1011C19.32 52.0656 19.3637 52.0285 19.4033 51.9886L19.4041 51.9874L19.4103 51.9823L19.4121 51.9783L19.4156 51.9756L19.4203 51.9704V51.97C19.5098 51.8756 19.5722 51.7726 19.6062 51.6628L19.6065 51.6616V51.6584L19.6085 51.6533V51.6525C19.6259 51.5913 19.6349 51.5277 19.6344 51.4634L50.3559 42.4602L50.5281 42.6415L50.5072 42.6521L50.5068 42.6541C50.551 42.6395 50.5948 42.6237 50.6351 42.6059L50.6371 42.6055L50.5233 42.4136L51.167 42.2683L51.1564 42.2256L55.2291 41.0322L55.2812 41.2091L55.3278 41.3691L55.3365 41.4642L55.3345 41.3932L55.3389 41.4646L55.3357 41.3963L55.3369 41.4003L55.3365 41.3979L55.3393 41.4078L55.3381 41.4042L55.3531 41.4619L55.3452 41.4275L55.3551 41.4611L55.3365 41.3936L55.3353 41.3628L55.7677 41.0034C55.7109 40.9682 55.6453 40.9441 55.5738 40.9311L71.0622 36.392L71.0602 36.394C71.0199 36.424 70.9816 36.4552 70.9485 36.4856L71.5266 36.8015L71.557 36.8671L71.6135 36.8474L71.7213 36.9062L71.7292 36.9003L71.7513 36.8829L71.6755 36.8252L71.6873 36.8213L71.7604 36.8762L71.7351 36.8549L71.7636 36.8738L71.6948 36.8189L72.4843 36.5429L72.4554 36.4852L72.4546 36.4832L72.4539 36.4825C72.3425 36.2874 72.1119 36.1752 71.8196 36.1701L91.7373 30.3333C92.289 30.1714 92.6057 29.5913 92.4442 29.0396L85.6284 5.78338L85.6667 5.74863L85.6241 5.76877L84.8896 3.26267C84.7565 2.80852 84.3398 2.51313 83.8892 2.51313C83.7925 2.51313 83.6942 2.52696 83.597 2.55539L37.0095 16.2082L36.5518 16.1908L36.0393 16.1727L36.0021 16.1869L36.0874 16.4783L36.0839 16.4795L35.993 16.1888L36.0681 16.4838L9.29487 24.3299L8.82098 23.9623L8.90272 24.4448L3.26247 26.0979C2.71098 26.2594 2.39335 26.84 2.55534 27.3916L9.79838 52.1071L9.45421 52.0699L9.4539 52.0711L9.41721 52.1351C9.37942 52.1963 9.33345 52.2721 9.30766 52.3551L9.87704 52.3756ZM49.3967 44.7566L49.1333 45.1274L49.0152 45.2724L49.0547 45.2933L49.0645 45.298L49.0926 45.3142L49.1771 45.3561L49.4061 45.1112L49.634 44.8668L49.5839 44.8399L49.5144 44.8012L49.5132 44.8016L49.5112 44.8L49.4279 44.7665L49.4129 44.7613L49.2174 45.018L49.3967 44.7566ZM49.4235 44.3289L50.1004 44.4723C50.1679 44.3641 50.1908 44.2519 50.1691 44.1449V44.1441L50.1648 44.1283V44.1279L50.1656 44.1236L50.1648 44.1212L50.1644 44.1204L50.1612 44.1097L50.132 44.0371L49.6253 44.2373L50.1276 44.0304L49.6241 44.2341L49.4034 44.3238L49.4022 44.3242H49.405L49.3054 44.3637L49.3106 44.3621L49.2494 44.3854L49.1214 44.4379L49.3177 44.3601L49.4235 44.3289ZM50.9696 43.455L50.5139 43.9439L50.5557 43.9731L50.6268 44.024L50.6473 44.0367H50.6485L50.9104 43.8096L51.1734 43.5817L51.1327 43.5525L51.0486 43.4937L51.0462 43.4925L51.0454 43.4917V43.4913L50.9696 43.455ZM59.5849 40.6681L60.1445 40.9284C60.2764 40.7968 60.3226 40.6381 60.278 40.4782V40.4766L60.2689 40.4509V40.4501L59.9554 40.55L60.2677 40.447L59.583 40.6661L59.5838 40.6669L59.5849 40.6677L59.5715 40.6713L59.5849 40.6681ZM84.9219 32.5085L84.4927 33.0077L84.4939 33.0084L84.5124 33.0258L84.4852 33.1024L84.463 33.1099L84.6305 33.6083C84.6743 33.5945 84.715 33.5787 84.7525 33.5625C85.1186 33.4077 85.3062 33.1198 85.2414 32.8122L85.2363 32.7849L85.2229 32.76C85.1557 32.6428 85.0562 32.5571 84.9219 32.5085ZM7.10051 22.6567L7.16654 22.911L7.19999 22.9256L7.73545 22.4754L7.73497 22.475L7.69177 22.4513C7.57934 22.3929 7.45068 22.3637 7.31369 22.3637C7.22361 22.3637 7.12981 22.3763 7.03464 22.402L7.10051 22.6567ZM48.0789 11.6312C48.0769 11.6312 48.0749 11.6312 48.0729 11.6312C47.8853 11.6332 47.6804 11.6877 47.4873 11.7943L47.2191 11.9392L47.2085 12.1608L47.1982 12.224C47.1868 12.2899 47.1694 12.3732 47.18 12.4581L47.1812 12.4684L47.6539 12.363L47.6575 12.3618C47.6875 12.3788 47.7219 12.3942 47.7578 12.4048C47.708 12.3898 47.6832 12.3681 47.6749 12.3578L47.8206 12.3298L47.7629 12.406H47.7637L47.7692 12.4072L47.7843 12.4108L47.8376 12.3254L47.928 12.3081L48.003 12.3942L47.9742 12.4052C47.9402 12.4151 47.9011 12.4198 47.8628 12.4198C47.8549 12.4198 47.8474 12.4198 47.8399 12.419L47.7949 12.4127C47.8391 12.423 47.8869 12.4281 47.9367 12.4281C48.0038 12.4281 48.0745 12.4186 48.146 12.3977C48.4153 12.3187 48.5954 12.1126 48.5705 11.9222L48.6416 11.8879L48.6226 11.8614L48.5662 11.8918L48.5654 11.8895L48.6207 11.8599C48.5456 11.7659 48.441 11.7007 48.315 11.6632H48.3142L48.2992 11.66V11.6588L48.2933 11.6581L48.2842 11.6553L48.2739 11.6533L48.2668 11.6521V11.6513C48.2064 11.6375 48.1452 11.6312 48.0789 11.6312ZM59.2631 7.34604L59.2528 7.36301L59.3125 7.38L59.6556 7.74253C59.7287 7.69948 59.7946 7.64774 59.8499 7.58811L59.8799 7.55574L59.9159 7.50558L59.9506 7.45266L59.9949 7.35156L59.3093 7.32313L59.2931 7.31444L59.2868 7.32155H59.2785L59.273 7.33142L59.2666 7.34169V7.34248V7.34287L59.2674 7.34208L59.2856 7.34998L59.2828 7.3492L59.2868 7.35156L59.2753 7.34683L59.2923 7.3571L59.2631 7.34604ZM66.3659 7.01036L66.3663 7.01155L66.8548 6.53647L66.8528 6.53608L66.854 6.53529L66.8027 6.51002C66.7537 6.48514 66.7008 6.45788 66.6353 6.43419V6.4334L66.6313 6.43181L66.6266 6.43064L66.6234 6.42985V6.42906L66.5764 6.41444L66.1945 6.93059L66.1957 6.9302L66.1985 6.93178C66.2273 6.94047 66.2644 6.95942 66.3027 6.97916L66.3647 7.01076L66.3659 7.01036ZM11.1102 53.325C10.9154 53.325 10.7354 53.1978 10.6775 53.0015L10.4466 52.2137C10.4529 52.2018 10.4588 52.1904 10.4643 52.1789L10.4636 52.1781L10.4353 52.175L3.12377 27.2246C3.05423 26.9869 3.19118 26.7361 3.42924 26.6666L9.0024 25.0332L9.04773 25.3014L9.04821 25.3511L9.06424 25.3286L9.08861 25.3105L9.09757 25.3192L9.19736 25.4487L9.57193 25.9289L9.65368 25.8827C9.99492 25.6793 10.1649 25.3752 10.1095 25.0546L10.1083 25.0403L10.0782 24.9385L9.87226 24.7785L14.8706 23.3134L15.3702 23.7585C15.6582 23.5717 15.805 23.3142 15.7833 23.0461L83.7637 3.12405C83.8055 3.11181 83.8482 3.10589 83.8896 3.10589C84.0843 3.10589 84.2636 3.23345 84.3213 3.42933L85.0811 6.02309L84.1361 6.46539L84.1128 6.45947L84.0993 6.46697L83.471 4.32182L74.308 7.00681L74.1678 6.98312L74.274 7.01707L74.1682 6.98351L74.1678 6.98429L74.1354 7.01984L74.0935 7.0696L49.5523 14.2617L49.5041 14.2731L48.8758 14.4145L48.8872 14.4568L27.0334 20.861C27.0289 20.8594 27.0244 20.8575 27.02 20.8559L27.0184 20.8551L27.0166 20.8543L27.013 20.8531C26.9621 20.8338 26.9027 20.8176 26.8302 20.8121L26.7837 20.9341L4.32118 27.5172L5.37958 31.1283L5.37661 31.1409L5.38309 31.1405L11.5283 52.1094L13.8377 51.4326L14.1905 51.4697H14.1911L14.2189 51.4207L14.2664 51.333L14.2042 51.3251L89.7276 29.1924L89.837 29.3595L90.038 29.2655L90.096 29.3046L90.4787 29.0898L90.9664 28.7288L90.8243 28.6273L91.3894 27.7763L90.472 28.2119L84.2834 7.09487L85.3074 7.08066L84.6317 6.68496L85.1403 6.22449L87.6875 14.9161C87.6346 14.8979 87.5812 14.8829 87.5283 14.8714H87.5272L87.5248 14.8706C87.3984 14.843 87.276 14.8335 87.165 14.8335C87.0837 14.8335 87.0082 14.8387 86.9423 14.8458L86.9158 15.2355L86.8894 15.6245L86.8985 15.6237C86.9146 15.6218 86.9352 15.6198 86.9589 15.6198C87.0608 15.6198 87.2235 15.6565 87.3656 15.899C87.387 15.9819 87.3881 16.0577 87.3656 16.1095L87.3609 16.1201L87.3597 16.1205L88.0749 16.2382L91.8755 29.2063C91.9454 29.444 91.8092 29.6948 91.5706 29.7643L47.1781 42.7742L47.1856 42.7039L46.9913 42.7307L46.9305 42.7398L46.4435 42.8081V42.8085L46.4431 42.8105L46.4412 42.8227L46.4396 42.8291L46.4325 42.8583L46.4143 42.9479L46.4072 43L19.3348 50.9338C19.2523 50.8718 19.1618 50.8256 19.0621 50.7944L18.8396 51.0787L18.8366 51.0795L19.0481 50.79C18.9536 50.7604 18.8508 50.7458 18.7434 50.7458C18.74 50.7458 18.7366 50.7458 18.733 50.7458L18.6314 51.1399L11.2367 53.3068C11.1946 53.319 11.152 53.325 11.1102 53.325ZM40.3307 44.5659L40.2079 44.7203L40.298 44.6133L40.3331 44.5726L40.3335 44.5738L40.3378 44.5682L40.3406 44.5777L40.3422 44.5884L40.384 44.7179L40.3702 44.6508L40.3627 44.6243L40.4113 44.7088L40.3469 44.5576L40.6451 44.2239L40.6162 44.2128L40.5693 44.1994L40.5653 44.1982C40.5238 44.1891 40.4804 44.1844 40.4362 44.1844C40.3872 44.1844 40.3367 44.1899 40.2865 44.201L40.2549 44.2081L40.1483 44.2456L40.3303 44.5651L40.3307 44.5659ZM50.1517 41.3604L49.7165 41.858L49.8291 41.9002L49.9724 41.9539L50.1896 41.7055L50.1912 41.7043L50.4092 41.456L50.4076 41.4563L50.1517 41.3604ZM56.2187 39.0273L55.6351 39.4443L55.6398 39.4498L55.6572 39.4775L55.6627 39.4921L55.6631 39.4929L56.3854 39.2654C56.3534 39.1682 56.2977 39.0889 56.2187 39.0273ZM37.0313 17.0806C36.9041 17.0806 36.7627 17.1141 36.6281 17.1801L36.4883 17.2488L36.4377 17.3625L36.4101 17.4111L36.3651 17.494V17.4952L36.3635 17.4968L36.3335 17.571L36.3327 17.577L36.8295 17.5837L37.0557 17.588L37.0838 17.5379L37.1391 17.4348V17.4344L36.9649 17.417L37.2161 17.1086C37.16 17.0896 37.0976 17.0806 37.0313 17.0806ZM55.2848 41.2068L55.2303 41.0318L55.2378 41.0298L55.2848 41.2068ZM55.3286 41.1969L55.3144 41.0073L55.3227 41.0046L55.3286 41.1969ZM94.1893 31.5919C94.1573 31.5046 94.1237 31.4083 94.0882 31.302L94.3721 31.3486C94.3149 31.4324 94.254 31.5133 94.1893 31.5919Z" fill="white"/>
<path d="M20.8186 43.8971L19.377 38.9781L22.4348 38.0821C22.7348 38.4964 23.1487 38.8162 23.6758 39.0437C24.0056 39.1859 24.3231 39.2569 24.6277 39.2569C24.8096 39.2569 24.9869 39.2317 25.1598 39.1811C25.4382 39.0994 25.6596 38.9572 25.8234 38.7546C25.9874 38.5512 26.0314 38.3206 25.9555 38.0608C25.8925 37.8455 25.7684 37.6809 25.584 37.5667C25.3989 37.4526 25.2173 37.3835 25.0387 37.3606C24.8931 37.3412 24.7229 37.3322 24.5284 37.3322C24.4839 37.3322 24.4383 37.3326 24.3913 37.3333C24.3218 37.3337 24.254 37.3337 24.1873 37.3337C23.8649 37.3337 23.5746 37.3306 23.3164 37.3239C23.0527 37.3168 22.772 37.3014 22.4739 37.2773L22.3795 37.0727L22.2689 36.833C22.0673 36.9084 21.9231 37.0435 21.8581 37.2137C21.6748 37.1892 21.5039 37.1608 21.3456 37.1276C21.1363 37.0846 20.9205 37.0289 20.6984 36.9609L20.7494 36.8903L20.749 36.8891H20.7494L20.6939 36.8741C20.6291 36.8559 20.5571 36.835 20.4741 36.8204L20.4718 36.8196L20.4452 36.8156L20.4165 36.8689C20.1312 36.7694 19.8739 36.6525 19.6457 36.5175C19.4046 36.3753 19.1639 36.1996 18.9245 35.9914C18.6847 35.7833 18.4713 35.5484 18.2847 35.2869C18.098 35.0259 17.9218 34.7226 17.756 34.3794C17.5902 34.0362 17.4459 33.656 17.3238 33.2381C16.8821 31.7312 16.8991 30.4232 17.375 29.3147C17.8509 28.2058 18.795 27.4444 20.2069 27.0309C20.8257 26.8493 21.4058 26.7589 21.9473 26.7589C22.4748 26.7589 22.9657 26.8449 23.4202 27.0167C23.4233 26.9338 23.4686 26.7142 23.557 26.358L26.2635 25.565L27.4364 29.5667L27.269 29.7298L27.2827 29.7471L27.2801 29.7641L27.2871 29.755L27.2974 29.7728L27.3194 29.7645L27.4992 29.941L27.565 30.0054L27.6997 30.4651L24.7842 31.3197C24.7194 31.2043 24.6468 31.0954 24.5666 30.9923L24.7348 30.8011L24.7329 30.8015L24.363 30.6621L24.3171 30.7147C24.1234 30.5283 23.8979 30.3671 23.6403 30.2321C23.3102 30.0583 22.9861 29.9714 22.6685 29.9714C22.5014 29.9714 22.336 29.9955 22.1725 30.0437C21.908 30.1211 21.717 30.2479 21.5996 30.4248L21.5758 30.4319L21.5066 30.4809L21.549 30.5144C21.5453 30.5219 21.5419 30.5298 21.5385 30.5377L21.304 30.77L21.4012 30.8347L21.4834 30.8947C21.4888 30.9836 21.5064 31.078 21.5359 31.1787C21.5917 31.3686 21.7174 31.5108 21.9133 31.6044C22.1092 31.698 22.3545 31.7568 22.6504 31.7801C22.9106 31.8007 23.2008 31.8113 23.5215 31.8113C23.5653 31.8113 23.6096 31.8109 23.6545 31.8105C23.7019 31.8101 23.7497 31.8101 23.7978 31.8101C24.1296 31.8101 24.4798 31.8192 24.8482 31.8374C25.2701 31.8583 25.6974 31.8958 26.1293 31.9515C26.5616 32.0072 26.9924 32.1217 27.4212 32.2951C27.8501 32.4681 28.2532 32.6939 28.6299 32.972C29.007 33.25 29.358 33.6315 29.6824 34.1176C29.7068 34.1539 29.7309 34.1911 29.7544 34.2286C29.6983 34.4817 29.8165 34.6851 30.0599 34.7984V34.7992L30.0622 34.7988C30.0664 34.8004 30.0704 34.8024 30.0747 34.8043C30.2279 35.1191 30.3623 35.4603 30.4779 35.8283C30.6797 36.4705 30.7613 37.1304 30.7229 37.8084C30.6847 38.4865 30.5401 39.1203 30.2897 39.7091C30.0399 40.2983 29.6673 40.8212 29.1721 41.2797C28.6774 41.737 28.0977 42.0632 27.4328 42.2579C26.8665 42.4237 26.3619 42.5071 25.9194 42.5071C25.8274 42.5071 25.7384 42.5035 25.6519 42.4964C25.1482 42.4549 24.5882 42.2974 23.9719 42.0245L23.8861 42.9983L20.8186 43.8971ZM27.176 41.5885L26.761 41.7911L27.0027 42.047L27.0796 42.1275L27.0816 42.1295L27.0842 42.1319L27.086 42.1343L27.0873 42.1351L27.0919 42.1386L27.1475 42.1872L27.4135 42.0004L27.4483 42.0482H27.449L27.4945 42.0257L27.456 41.9716L27.7367 41.7753L27.7313 41.7702L27.7298 41.7705L27.7282 41.769L27.7279 41.7678L27.7259 41.7674L27.7244 41.765H27.7232L27.721 41.7627L27.6426 41.6817L27.6087 41.645H27.6079L27.6076 41.6446L27.3333 41.8033L27.176 41.5885ZM23.586 40.8496L23.196 41.3626C23.1996 41.3638 23.23 41.3831 23.269 41.4811L23.6272 41.3594L23.9858 41.237C23.9337 41.1059 23.837 40.9219 23.586 40.8496ZM28.3835 39.9121L28.3931 39.9646L28.1282 40.0298L27.7614 40.1194L27.7622 40.125C27.8046 40.3268 28.0133 40.448 28.3039 40.448C28.3334 40.448 28.3636 40.4468 28.3947 40.4444L28.4718 40.4318L28.543 40.4132L28.5409 40.4042L28.4695 40.1617L28.469 40.1601L28.471 40.1597L28.545 40.4125L28.6029 40.3939L28.4394 40.0014L28.4417 39.9524L28.4201 39.9575L28.4 39.9082L28.4101 39.9591L28.4019 39.9619L28.3862 39.9113L28.3877 39.9212L28.3835 39.9121ZM26.9153 37.4025L26.5913 37.932L26.596 37.9328C26.6157 37.9395 26.6615 37.9711 26.7112 38.1176C26.714 38.2018 26.709 38.2578 26.6967 38.2847L26.6951 38.2874L26.6939 38.2902L27.0217 38.3676L27.3545 38.4363L27.3935 38.366L27.3945 38.3625V38.3617C27.4158 38.3143 27.4317 38.2665 27.4398 38.2203V38.2187L27.4401 38.2183C27.4572 38.1307 27.456 38.0454 27.4518 37.9668V37.9423L27.4436 37.919C27.4177 37.8361 27.3691 37.684 27.2389 37.5628L27.2384 37.562L27.2364 37.5612L27.2362 37.56L27.2343 37.5592L27.2338 37.5577V37.5569L27.2315 37.5553L27.2307 37.5545L27.2284 37.5541L27.2281 37.5529L27.1562 37.498L27.1541 37.4968L27.1528 37.4964L27.1505 37.4945L27.1493 37.4933L27.1475 37.4929L27.1451 37.4917L27.1443 37.4905L27.1428 37.4901L27.1416 37.4889C27.0811 37.451 27.0052 37.421 26.9153 37.4025ZM23.2762 35.5555L22.8968 36.0898L22.7263 36.2991L22.7831 36.3287L22.798 36.3362L22.8378 36.3591C22.879 36.382 22.9207 36.4025 22.96 36.4199L23.2893 36.0669L23.618 35.7142L23.5462 35.6755C23.5154 35.6585 23.4814 35.6392 23.4449 35.6202L23.4428 35.6206L23.4413 35.619C23.4055 35.6013 23.3649 35.5855 23.3202 35.5705L23.2991 35.5634L23.0178 35.933L23.2762 35.5555ZM24.4437 35.6084L25.1101 35.7466C25.1876 35.621 25.2107 35.4761 25.1783 35.3173L25.1726 35.2857L25.1559 35.2601C25.0023 34.999 24.7618 34.8663 24.4407 34.8663C24.4386 34.8663 24.4364 34.8663 24.4343 34.8663L24.2936 35.4137L24.314 35.4153C24.3687 35.4263 24.4175 35.4828 24.4486 35.5294C24.452 35.5701 24.4486 35.595 24.4458 35.6052L24.4429 35.6088H24.4424H24.4428H24.4429L24.4437 35.6084ZM25.5416 33.68L24.8855 34.385L24.9454 34.428L25.0482 34.5007L25.0775 34.518L25.08 34.5188L25.4578 34.1911L25.8359 33.8637L25.7768 33.8206C25.739 33.793 25.7015 33.7634 25.655 33.7361L25.6534 33.7345L25.6511 33.7337V33.733C25.6179 33.7136 25.5832 33.6958 25.5416 33.68ZM19.7225 32.6497L19.0209 32.7481V32.7488L19.0205 32.752L19.0183 32.7698L19.0158 32.7781L19.0055 32.8211C18.9952 32.8638 18.9859 32.9076 18.9793 32.9499L18.9523 33.1445L19.1467 33.2464L19.9592 33.5241L20.044 32.8709L20.0587 32.8033L20.0702 32.7492L20.0776 32.7172C20.0866 32.6758 20.09 32.6359 20.09 32.5976L19.81 32.6379L19.7225 32.6497ZM18.2465 32.7678L18.3754 33.276L18.3972 33.2697L18.4193 33.2634C18.4551 33.252 18.49 33.2393 18.5211 33.2247C18.6612 33.1655 18.771 33.0817 18.8397 32.983C18.9003 32.8946 18.9577 32.754 18.8725 32.5873L18.8515 32.5474L18.7749 32.4882L17.82 32.1782L18.1725 32.8721C18.1663 32.8416 18.2072 32.7868 18.2465 32.7678ZM24.0621 28.6331C24.0406 28.6331 24.0192 28.6339 23.9982 28.6351L23.9943 28.6355C23.9388 28.639 23.8848 28.6449 23.8313 28.6524L23.7768 28.6592L23.6827 28.6915C23.6241 28.7121 23.5542 28.7358 23.4848 28.7674L23.4827 28.7682L23.3958 28.8132L23.7788 29.2168L23.7792 29.2164L23.7825 29.2144L23.8686 29.1836L23.9103 29.1808L23.9164 29.18L23.9234 29.165L23.9265 29.1642L23.9249 29.1615L24.1555 28.6378L24.1301 28.6355L24.1282 28.6351L24.1239 28.6355L24.1208 28.6347L24.1188 28.6351C24.1001 28.6335 24.0812 28.6331 24.0621 28.6331Z" fill="white"/>
<path d="M38.8577 38.5635C38.2262 38.5635 37.6003 38.4877 36.9803 38.3357C35.5882 37.9949 34.3731 37.3156 33.3364 36.2999C32.299 35.2834 31.5633 34.0315 31.1271 32.5439C30.6486 30.9102 30.5694 29.3811 30.8916 27.957C31.1186 26.9508 31.5106 26.0571 32.0672 25.2756L32.2113 25.5572L32.2121 25.556L32.2129 25.5568L32.9293 24.9044C32.7986 24.8333 32.6426 24.797 32.4708 24.797C32.4605 24.797 32.4499 24.7974 32.4396 24.7974C32.5683 24.6461 32.7046 24.4992 32.8475 24.3571C33.8297 23.3816 35.0748 22.6728 36.5814 22.2313C37.4688 21.9714 38.3328 21.8415 39.174 21.8415C39.7375 21.8415 40.2908 21.8999 40.8342 22.0164C42.1875 22.3075 43.3845 22.9654 44.4243 23.991C45.4633 25.0165 46.2227 26.3458 46.7014 27.9796C47.1377 29.4672 47.193 30.9189 46.8688 32.3338C46.8384 32.4673 46.8048 32.5992 46.7681 32.7291C46.727 32.7228 46.6836 32.7193 46.6382 32.7193C46.575 32.7193 46.5082 32.726 46.4384 32.7394L46.3712 32.752L46.3104 32.7809L46.4308 32.9586L46.4846 33.2165L46.5197 33.205L46.5343 33.2552L46.6117 33.2259C46.2448 34.2709 45.6746 35.2009 44.9002 36.0144C43.9121 37.0534 42.6934 37.7852 41.2437 38.2101C40.4397 38.4458 39.6439 38.5635 38.8577 38.5635ZM39.5511 37.645L39.5563 37.6513L39.6266 37.7409L39.8856 38.0742L39.9433 38.0418C40.1798 37.9009 40.2975 37.6904 40.2592 37.4677L40.258 37.4578L40.2371 37.3871L39.3643 36.709L39.5223 37.6383L39.5231 37.6734L39.5341 37.6576L39.5511 37.645ZM36.0542 36.5653L36.0479 36.5708L35.9772 36.6206L35.9499 36.6403L35.8674 36.7011L35.8173 36.7422L36.5518 37.1936L36.5538 37.192L36.6316 37.1367C36.6963 37.0901 36.7694 37.0392 36.8349 36.9776L36.8365 36.976L36.8385 36.9752L36.8847 36.9298V36.9286L36.0542 36.5653ZM43.4864 36.1905L43.9109 36.568C44.1522 36.4113 44.2506 36.183 44.1735 35.9563L43.8118 36.0709L43.4509 36.1858L43.456 36.2249L43.4734 36.2012L43.4864 36.1905ZM37.5604 25.6267C37.5588 25.6271 37.5576 25.6275 37.556 25.6279C37.3092 25.7001 37.0972 25.8028 36.9202 25.9375C36.7425 26.0721 36.6079 26.2266 36.5147 26.4019C36.4215 26.5772 36.3492 26.7699 36.2975 26.9812C36.2461 27.1921 36.2244 27.4117 36.2327 27.6395C36.241 27.867 36.2588 28.1028 36.2852 28.3456C36.3117 28.5893 36.3555 28.827 36.4171 29.0596C36.4783 29.293 36.5368 29.5217 36.5925 29.746C36.6478 29.9703 36.7105 30.1788 36.7808 30.3715C36.8251 30.5228 36.8575 30.6341 36.8784 30.7036C36.8969 30.7672 36.9246 30.862 36.9617 30.9888C37.0237 31.1767 37.0822 31.3762 37.1366 31.5867C37.1919 31.7979 37.2603 32.0132 37.342 32.2335C37.4238 32.4535 37.5067 32.6715 37.5904 32.8875C37.6745 33.1035 37.7717 33.3124 37.8818 33.5134C37.9928 33.7148 38.1069 33.9012 38.2266 34.0726C38.3455 34.244 38.4793 34.3956 38.6278 34.5272C38.7763 34.6591 38.9327 34.7645 39.0966 34.8435C39.2609 34.9229 39.4445 34.9683 39.6479 34.9813C39.6815 34.9833 39.715 34.9845 39.749 34.9845C39.92 34.9845 40.0953 34.958 40.275 34.9055C40.3165 34.8932 40.3567 34.8802 40.3958 34.8664L41.1936 34.9564L41.207 34.9347L40.7193 34.8462L40.5313 34.8123C40.6703 34.7507 40.7947 34.6756 40.9037 34.5872C41.0759 34.4474 41.2086 34.2851 41.3018 34.0995C41.3958 33.9139 41.4641 33.7081 41.5079 33.4818C41.5517 33.2559 41.5683 33.0194 41.5573 32.7714C41.5466 32.5238 41.5241 32.2706 41.4897 32.0128C41.4554 31.7549 41.4064 31.4994 41.3424 31.2466C41.2789 30.9935 41.2149 30.7459 41.1505 30.5034C41.0861 30.2609 41.0194 30.0331 40.9503 29.8202C40.9132 29.6931 40.8855 29.5983 40.867 29.5351C40.846 29.4652 40.8137 29.3542 40.7694 29.2026C40.6964 28.9763 40.6257 28.7358 40.5578 28.4807C40.4898 28.2252 40.4026 27.9681 40.2951 27.7071C40.1877 27.446 40.0764 27.1957 39.961 26.9544C39.8457 26.7131 39.7036 26.4931 39.5357 26.2945C39.3679 26.0966 39.1906 25.9323 39.0046 25.8012C38.8178 25.6701 38.5998 25.588 38.3494 25.5548C38.2772 25.5453 38.2037 25.5402 38.1291 25.5402C37.977 25.5402 37.8206 25.5603 37.6591 25.5998C37.6947 25.5592 37.7231 25.5145 37.744 25.4667V25.4656C37.7784 25.3866 37.7938 25.2989 37.789 25.2026L37.7879 25.1666L37.7732 25.1342C37.744 25.0703 37.7045 24.9838 37.6342 24.9072C37.5489 24.8124 37.4166 24.7322 37.1998 24.7322C37.1864 24.7322 37.1726 24.7326 37.1584 24.7334L37.1059 25.0063L37.1406 24.7342C37.0743 24.7385 37.0051 24.7504 36.936 24.7693L36.9175 24.7745L36.9858 25.028L36.9068 24.7772L36.8409 24.799L36.9499 25.0398L37.0565 25.2732L37.0549 25.2792L37.013 25.2736L36.9878 25.2649C37.0059 25.278 37.0296 25.3238 37.0478 25.3609L37.0423 25.3965L37.0549 25.3775L37.0628 25.3957L37.0644 25.3953L37.1122 25.3783L37.5604 25.6267ZM35.6557 31.9622L35.8706 32.1502L35.9389 32.1004C36.0984 31.9677 36.164 31.7912 36.1205 31.604L36.1182 31.595L36.1051 31.5495L35.0855 30.5022L35.3884 31.7975L35.3912 31.8339L35.4255 31.7877L35.4326 31.7829L35.4449 31.7734L35.5183 31.841L35.6557 31.9622ZM31.835 30.8122L31.8326 30.7096L31.8382 30.8122L31.8338 30.7139L31.8354 30.7194L31.8342 30.7171L31.8382 30.7301L31.8374 30.725L31.8591 30.8079L31.8468 30.7589L31.8607 30.8071L31.8342 30.71L31.833 30.6653L32.4558 30.148C32.3278 30.0686 32.1691 30.028 31.9973 30.028C31.9365 30.028 31.8737 30.0331 31.8105 30.0434L31.822 30.4272L31.7947 30.0465L31.7252 30.0603L31.6628 30.0761L31.7607 30.441L31.6478 30.0805L31.7544 30.4438L31.822 30.674L31.835 30.8122ZM44.9642 29.4727L44.2656 29.7559C44.3386 29.8921 44.4713 29.9853 44.6494 30.0256L44.9898 29.4988L44.9886 29.4992L44.9642 29.4727ZM33.1054 27.3011L32.2643 27.9006L32.2714 27.9093L32.2966 27.948L32.3045 27.9705L32.3053 27.9713L33.3463 27.6435C33.2989 27.5041 33.2195 27.3892 33.1054 27.3011ZM33.6113 27.3844L33.8676 27.6597C33.9975 27.5846 34.206 27.4144 34.1511 27.1096L34.1314 27.0014L34.009 26.9508L33.9612 26.9271C33.9288 26.9082 33.8909 26.8876 33.8471 26.8695L33.804 26.8549L33.4806 27.2588L33.4826 27.2581L33.4893 27.2553L33.4987 27.2648L33.4723 27.2711L33.4707 27.2715L33.3984 27.3627L33.4458 27.388C33.4826 27.4085 33.5193 27.4275 33.5556 27.4429L33.6113 27.3844ZM46.6125 33.2232L46.5845 33.1837L46.6319 33.1683C46.6255 33.1868 46.6188 33.205 46.6125 33.2232Z" fill="white"/>
<path d="M50.7084 35.1381L49.6998 31.7317L51.0575 31.3336L48.5222 22.6827L47.1262 23.0918L46.1468 19.7485L48.4172 19.0831L48.2734 19.3524C48.2762 19.3532 48.3244 19.3627 48.3694 19.5337C48.3796 19.6399 48.3559 19.6802 48.3544 19.6834L48.3623 19.6751L48.6075 19.8405L48.8516 20.0064C48.9704 19.9144 49.049 19.8022 49.0873 19.6703C49.1138 19.5803 49.1209 19.4796 49.1086 19.3706L49.1039 19.3449C49.081 19.2517 49.0352 19.0744 48.878 18.948L54.3898 17.3329L55.3691 20.6762L53.9068 21.1046L56.4421 29.7555L58.2559 29.224L58.1082 25.6583L60.824 24.8626L62.797 31.5954L50.7084 35.1381ZM58.2239 31.3146L58.3543 31.8237L58.378 31.817C58.6793 31.7285 58.8965 31.5512 58.9719 31.3296L58.6121 31.3162L58.2563 31.3032L58.2303 31.3134L58.3037 31.5642H58.3021L58.2239 31.3146ZM60.0867 27.4686L59.6831 27.2747L59.6891 27.2696L60.0998 27.4576L60.1436 27.4129V27.4117L60.1491 27.4086V27.407L60.1515 27.4046L60.1531 27.4034L60.1566 27.4003L60.1582 27.3991L60.1598 27.3967L60.1614 27.3952L60.2297 27.3217L60.2325 27.3197L59.3554 27.0062L59.3538 27.0066V27.0074L59.3036 27.0583L59.302 27.0603L59.3005 27.0607L59.2945 27.0666L59.2752 27.0852L59.6808 27.2775L60.0867 27.4686ZM52.2596 24.8839C52.1696 24.8839 52.0744 24.8981 51.9765 24.9266L51.8857 24.9574L51.8304 24.9787L51.7826 25.0107C51.5113 25.1912 51.4576 25.3732 51.4611 25.4937L52.1044 25.391L52.1107 25.4024L52.0803 25.4242L52.0776 25.4257L52.0772 25.4261L52.078 25.4257V25.4261V25.4281L52.0795 25.4269L52.1052 25.4107L52.1135 25.406L52.1483 25.3835L52.1502 25.3831L52.1143 25.4072L52.153 25.3831H52.1566L52.2035 25.3752L52.2016 25.3819L52.1941 25.3993L52.1933 25.3985L52.1929 25.4009L52.2162 25.3827V25.3819V25.3815L52.1921 25.361L52.1909 25.3602L52.3931 25.2378L52.6952 25.0383L52.3884 25.2322L52.694 25.0372L52.3856 25.2322H52.3844L52.6917 25.036L52.4192 25.2101L52.6897 25.0336L52.3828 25.2318V25.2311L52.6881 25.0328L52.4247 25.2026L52.6857 25.0312L52.3805 25.2299L52.3797 25.2295L52.6846 25.0296L52.4109 25.2089L52.6822 25.0273L52.3797 25.2263L52.6782 25.0245L52.3757 25.2271L52.3749 25.2263L52.6759 25.0221L52.3745 25.2259L52.3726 25.2251L52.6743 25.021L52.4042 25.2034L52.557 25.0976L52.6727 25.0182C52.5637 24.9293 52.4208 24.8839 52.2596 24.8839ZM49.9846 21.9774L50.1212 22.2068L50.1757 22.1812L50.1788 22.1788L50.1832 22.1768L50.1836 22.176L50.2341 22.1468L50.2357 22.146L50.2626 22.1282L50.5185 21.9944L50.4632 21.8064L50.4608 21.7922C50.4541 21.7408 50.4403 21.6354 50.3202 21.5694L50.3151 21.5663L50.3127 21.5659V21.5651L50.3056 21.5616L50.0608 21.7989L50.0312 21.8277L49.9253 21.6986L49.9233 21.6998L49.8388 21.7499L49.8376 21.7519L49.825 21.7598L49.8207 21.7618L49.8191 21.7622L49.8195 21.763L49.825 21.7598L49.8448 21.7503L49.8507 21.7468L49.9455 21.9103L49.8791 21.9746L49.9672 21.9486L49.9846 21.9774Z" fill="white"/>
<path d="M64.585 31.0721L63.5858 27.6628L65.1339 27.2095L62.5958 18.5487L60.9909 19.0191L60.4202 17.0733L61.1192 17.0208H61.1378L61.1346 17.02L61.1378 17.0204L61.1204 17.0153V17.0157L61.0754 16.973L61.0746 16.9707L61.0742 16.9675L61.107 16.9616L61.2128 16.943L61.8166 16.8348L61.8147 16.8171L61.8099 16.7874C61.7716 16.5892 61.5694 16.4727 61.2788 16.4727C61.2507 16.4727 61.2219 16.4739 61.1923 16.4762L61.1354 16.481L60.3172 16.7207L60.0107 15.6762L67.8931 13.3663C69.0767 13.0196 70.1646 12.8462 71.1566 12.8462C72.3512 12.8462 73.4068 13.0974 74.3242 13.6005C76.0034 14.5214 77.2102 16.2353 77.9447 18.7422C78.2476 19.7745 78.3598 20.8037 78.2828 21.83C78.2054 22.8564 77.9459 23.8243 77.5044 24.7338C77.2683 25.2207 76.9654 25.6812 76.5957 26.1152C76.4315 25.9987 76.2103 25.9375 75.9512 25.9375C75.8442 25.9375 75.7305 25.9478 75.6116 25.9695L75.5307 25.9888L75.6626 26.7336C75.6973 26.7273 75.7222 26.7241 75.7411 26.7241C75.7858 26.7241 75.7949 26.7411 75.8118 26.7735L76.0752 26.6673C75.8896 26.8462 75.6914 27.0199 75.4805 27.1886C74.573 27.9152 73.4799 28.4653 72.2008 28.8405L64.585 31.0721ZM66.6207 28.1525C66.6168 28.1525 66.6128 28.1525 66.6089 28.1525C66.4785 28.1533 66.336 28.192 66.2025 28.2655L66.0157 28.3662L66.0086 28.5202L66.0015 28.5636C65.9936 28.6091 65.9817 28.6671 65.9896 28.7259L65.9904 28.7331L66.3182 28.6596L66.321 28.6592L66.3893 28.6888L66.3324 28.656L66.4331 28.6371L66.3936 28.69L66.3944 28.6896L66.3984 28.6908L66.4079 28.6932L66.4446 28.6343L66.5078 28.6221L66.5603 28.6817L66.5402 28.6896L66.447 28.6991L66.4161 28.6944C66.4473 28.7015 66.4813 28.7054 66.5169 28.7054C66.5623 28.7054 66.6104 28.6987 66.6594 28.6845C66.8466 28.6296 66.9714 28.4862 66.9544 28.3543L67.0042 28.3306L66.9903 28.3121L66.9509 28.3326V28.331L66.9888 28.3109C66.9378 28.2453 66.8644 28.2003 66.7775 28.1743L66.7763 28.1746L66.7656 28.1723V28.1715L66.7617 28.1707L66.7554 28.1687L66.7487 28.1675L66.7439 28.1668L66.7431 28.1664C66.704 28.1573 66.6642 28.1525 66.6207 28.1525ZM73.5932 25.9359L73.5826 25.9545C73.562 25.992 73.5423 26.037 73.5308 26.0876C73.5095 26.1808 73.5131 26.2965 73.5826 26.4232L73.6667 26.58L74.3357 26.655L74.6939 25.8743L74.2638 25.8265L74.2634 25.8269L74.1595 26.0508L73.5932 25.9359ZM67.8588 25.8956L68.5652 26.3723L68.6008 26.3435L68.6134 26.3308C68.8784 26.1022 68.9538 25.7973 68.8243 25.4948L68.3109 25.6784L67.7975 25.8632C67.8197 25.911 67.8185 25.943 67.8169 25.9509L67.8181 25.9474L67.8437 25.9083L67.8588 25.8956ZM67.6502 25.2014L66.6914 25.6824L66.7447 25.7511C66.9181 25.9383 67.1527 26.0445 67.4445 26.0627L67.7426 25.2784L67.7419 25.2772L67.713 25.2654L67.6502 25.2014ZM69.0909 16.7645C68.82 16.7645 68.5352 16.8084 68.2363 16.8956L67.79 17.0264L70.3281 25.6871L70.6606 25.5896C71.1227 25.4541 71.5034 25.2448 71.8019 24.9617C72.1001 24.6781 72.3129 24.3654 72.4389 24.0222C72.5653 23.6794 72.6368 23.29 72.6541 22.8556C72.6707 22.4208 72.6474 22.007 72.5835 21.6132C72.5199 21.2187 72.4259 20.81 72.3015 20.3862C72.1735 19.9487 72.0373 19.5546 71.8924 19.2019C71.7478 18.8485 71.5583 18.4895 71.3245 18.125C71.0903 17.7609 70.8348 17.4698 70.558 17.2518C70.2811 17.0339 69.9419 16.8858 69.5407 16.8072C69.3953 16.7787 69.2453 16.7645 69.0909 16.7645ZM74.9114 24.4503L74.9774 24.705L74.9924 24.7002L74.9178 24.4483H74.9182L75.0015 24.6975C75.2151 24.6327 75.3826 24.5162 75.4852 24.3697L75.4868 24.3685L75.4872 24.3673C75.5583 24.267 75.597 24.1517 75.6029 24.0285L75.599 23.9858C75.5469 23.7145 75.3364 23.5384 75.0098 23.4898L75.0023 23.4883L74.727 24.0273L74.7547 24.0313C74.7902 24.0403 74.8364 24.0648 74.8581 24.1454L74.8479 24.1944L74.9182 24.4483H74.9178L74.8435 24.1955L74.9114 24.4503ZM74.4593 17.9098L73.8401 18.6289L73.8424 18.6309L73.8685 18.6554C73.8724 18.6968 73.8685 18.7501 73.8298 18.7655L73.7982 18.7774L74.0395 19.4941C74.1023 19.4748 74.1603 19.4527 74.2148 19.429C74.7424 19.2047 75.0129 18.7904 74.9201 18.3477L74.9126 18.3078L74.8929 18.2731C74.7981 18.1025 74.6528 17.9801 74.4593 17.9098Z" fill="white"/>
<path d="M58.3783 31.8169L58.3017 31.5646L58.3041 31.5642L58.3783 31.8169Z" fill="white"/>
<path d="M74.5615 26.1197L74.3846 26.0889L74.584 26.0064L74.5856 26.0522L74.5615 26.1197Z" fill="white"/>
<path d="M52.0779 25.426V25.4256L52.0802 25.4241L52.111 25.4035L52.1403 25.3853L52.0779 25.426ZM52.115 25.4008L52.1379 25.385H52.1387L52.115 25.4008ZM52.3717 25.2238H52.3713L52.5671 25.09L52.5569 25.0975L52.3717 25.2238ZM52.5671 25.09L52.6667 25.0212L52.6726 25.0181L52.5671 25.09Z" fill="white"/>
<path d="M58.3542 31.8228L58.2238 31.3138L58.302 31.5634H58.3036L58.2302 31.3126L58.2562 31.3023L58.612 31.3154L58.9718 31.3288C58.8964 31.5503 58.6792 31.7276 58.3779 31.8161L58.3542 31.8228ZM58.3036 31.5634L58.3012 31.5638L58.3779 31.8161L58.3036 31.5634Z" fill="#1C1C1C"/>
<path d="M27.5654 30.005L27.4996 29.9406L27.3198 29.7641L27.2978 29.7724L27.2874 29.7546L27.2805 29.7637L27.2831 29.7467L27.2694 29.7293L27.4368 29.5662L27.5654 30.005Z" fill="#1C1C1C"/>
<path d="M49.973 41.9535L49.8297 41.8998L49.7171 41.8576L50.1523 41.36L50.4082 41.4559L50.4098 41.4556L50.1918 41.7039L50.1902 41.7051L49.973 41.9535Z" fill="#1C1C1C"/>
<path d="M66.3668 7.01191L66.3664 7.01072L66.3652 7.01112L66.3032 6.97952C66.2649 6.95978 66.2278 6.94082 66.199 6.93214L66.1962 6.93055L66.195 6.93095L66.5769 6.4148L66.6239 6.42942V6.43021L66.6271 6.431L66.6318 6.43217L66.6357 6.43375V6.43455C66.7013 6.45824 66.7542 6.4855 66.8032 6.51037L66.8545 6.53564L66.8533 6.53644L66.8553 6.53683L66.3668 7.01191Z" fill="#1C1C1C"/>
<path d="M46.5341 33.2555L46.5195 33.2053L46.4843 33.2168L46.4306 32.9589L46.3102 32.7812L46.371 32.7524L46.4381 32.7397C46.508 32.7263 46.5748 32.7196 46.638 32.7196C46.6834 32.7196 46.7268 32.7231 46.7679 32.7294C46.7264 32.8779 46.6806 33.0244 46.6316 33.1686L46.5843 33.184L46.6123 33.2235C46.6119 33.2247 46.6119 33.2255 46.6115 33.2262L46.5341 33.2555Z" fill="#1C1C1C"/>
<path d="M27.1476 42.1874L27.092 42.1388L27.0874 42.1353L27.0862 42.1345L27.0843 42.1321L27.0817 42.1297L27.0797 42.1278L27.0029 42.0472L26.7611 41.7913L27.1761 41.5887L27.3335 41.8035L27.6078 41.6448L27.6081 41.6452H27.6088L27.6428 41.6819L27.7211 41.7629L27.7233 41.7652H27.7245L27.7261 41.7676L27.7281 41.768L27.7284 41.7692L27.7299 41.7708L27.7315 41.7704L27.7368 41.7755L27.4561 41.9718L27.4947 42.0259L27.4492 42.0484H27.4484L27.4137 42.0006L27.1476 42.1874Z" fill="#1C1C1C"/>
<path d="M94.3727 31.3492L94.0887 31.3026C94.0358 31.1442 93.9782 30.9634 93.9134 30.7572L93.8451 30.5554L93.6934 30.5396L93.5809 30.4784L93.5876 30.3829C93.6334 30.3777 93.6863 30.3742 93.7428 30.3742C93.8198 30.3742 93.9043 30.3809 93.9908 30.3998L93.9932 30.401L93.9943 30.4002C94.2084 30.448 94.4347 30.5681 94.5871 30.8421L94.6017 30.8761C94.608 30.8962 94.6132 30.9164 94.6179 30.9361C94.5456 31.0791 94.4635 31.2173 94.3727 31.3492Z" fill="#1C1C1C"/>
<path d="M55.6637 39.4931L55.6633 39.4923L55.6578 39.4777L55.6404 39.45L55.6356 39.4445L56.2193 39.0275C56.2983 39.0891 56.354 39.1685 56.386 39.2656L55.6637 39.4931Z" fill="#1C1C1C"/>
<path d="M5.37709 31.1409L5.38043 31.1266L5.3844 31.1404L5.37709 31.1409Z" fill="#1C1C1C"/>
<path d="M22.4747 37.2783C22.4201 37.2739 22.3649 37.2692 22.309 37.2641C22.1515 37.2502 22.0014 37.2336 21.8589 37.2147C21.9239 37.0445 22.0681 36.9094 22.2697 36.834L22.3803 37.0737L22.4747 37.2783Z" fill="#1C1C1C"/>
<path d="M14.1915 51.4711H14.1909L13.8381 51.434L14.2046 51.3266L14.2668 51.3345L14.2193 51.4221L14.1915 51.4711Z" fill="#1C1C1C"/>
<path d="M27.3548 38.4358L27.022 38.3671L26.6942 38.2897L26.6954 38.2869L26.697 38.2841C26.7093 38.2573 26.7143 38.2012 26.7115 38.1171C26.6618 37.9706 26.616 37.939 26.5963 37.9323L26.5916 37.9315L26.9156 37.4019C27.0055 37.4205 27.0814 37.4505 27.1419 37.4884L27.1431 37.4896L27.1446 37.49L27.1454 37.4912L27.1478 37.4923L27.1496 37.4927L27.1508 37.4939L27.1531 37.4959L27.1544 37.4963L27.1565 37.4975L27.2284 37.5524L27.2287 37.5536L27.231 37.554L27.2318 37.5547L27.2341 37.5563V37.5571L27.2346 37.5587L27.2365 37.5595L27.2367 37.5607L27.2387 37.5615L27.2392 37.5622C27.3694 37.6835 27.418 37.8355 27.4439 37.9185L27.4521 37.9418V37.9662C27.4563 38.0448 27.4575 38.1301 27.4404 38.2178L27.4401 38.2182V38.2198C27.4321 38.266 27.4161 38.3138 27.3949 38.3611V38.3619L27.3938 38.3655L27.3548 38.4358Z" fill="#1C1C1C"/>
<path d="M55.3396 41.4642L55.3353 41.3927L55.3372 41.4638L55.3286 41.3686L55.282 41.2087L55.2298 41.0318L55.231 41.0314L55.2855 41.2063L55.2385 41.0294L55.3151 41.0069L55.3293 41.1964L55.3234 41.0041L55.5746 40.9307C55.6461 40.9437 55.7116 40.9678 55.7685 41.0029L55.3361 41.3623L55.3372 41.3931L55.3558 41.4606L55.3459 41.4271L55.3538 41.4614L55.3388 41.4038L55.34 41.4073L55.3372 41.3975L55.3376 41.3998L55.3365 41.3959L55.3396 41.4642Z" fill="#1C1C1C"/>
<path d="M74.9767 24.7028L74.9107 24.4481L74.8428 24.1934L74.917 24.4461H74.9174L74.8471 24.1922L74.8574 24.1432C74.8357 24.0627 74.7895 24.0382 74.7539 24.0291L74.7263 24.0252L75.0015 23.4861L75.0091 23.4877C75.3356 23.5363 75.5461 23.7124 75.5983 23.9837L75.6022 24.0263C75.5963 24.1496 75.5576 24.2649 75.4865 24.3652L75.4861 24.3664L75.4845 24.3675C75.3818 24.5141 75.2144 24.6306 75.0008 24.6953L74.9174 24.4461H74.917L74.9917 24.6981L74.9767 24.7028Z" fill="#1C1C1C"/>
<path d="M74.0942 7.0689L74.1361 7.01914L74.1685 6.98359L74.1689 6.98281L74.2747 7.01637L74.0942 7.0689ZM74.2747 7.01637L74.1685 6.98242L74.3087 7.00611L74.2747 7.01637Z" fill="#1C1C1C"/>
<path d="M37.5598 25.6265L37.1116 25.3781L37.0638 25.3955V25.3951L37.0622 25.3955L37.0543 25.3773L37.0417 25.3962L37.0472 25.3607C37.029 25.3236 37.0053 25.2778 36.9872 25.2647L37.0125 25.2734L37.0543 25.279L37.0559 25.273L36.9493 25.0396L36.8403 24.7987L36.9062 24.777L36.9828 25.0302H36.9836L36.9062 24.777L36.9852 25.0278L36.9169 24.7743L36.9354 24.7691C37.0046 24.7502 37.0737 24.7383 37.14 24.734L37.1053 25.0061L37.1578 24.7332C37.172 24.7324 37.1858 24.732 37.1993 24.732C37.4161 24.732 37.5484 24.8122 37.6337 24.907C37.7039 24.9836 37.7434 25.0701 37.7727 25.134L37.7873 25.1664L37.7885 25.2023C37.7932 25.2987 37.7778 25.3864 37.7434 25.4654V25.4665C37.7225 25.5143 37.6941 25.559 37.6585 25.5996C37.6258 25.6079 37.593 25.6166 37.5598 25.6265Z" fill="#1C1C1C"/>
<path d="M39.8849 38.0742L39.6258 37.7409L39.5555 37.6512L39.5504 37.6449L39.5334 37.6576L39.5224 37.6734L39.5216 37.6382L39.3636 36.709L40.2364 37.387L40.2573 37.4577L40.2585 37.4676C40.2968 37.6903 40.1791 37.9008 39.9426 38.0418L39.8849 38.0742Z" fill="#1C1C1C"/>
<path d="M33.8669 27.6605L33.6106 27.3852L33.5549 27.4437C33.5185 27.4283 33.4818 27.4093 33.4451 27.3888L33.3977 27.3635L33.47 27.2723H33.4715V27.2719L33.498 27.2656L33.4885 27.2561L33.4818 27.2589L33.4798 27.2597L33.8033 26.8557L33.8463 26.8703C33.8902 26.8884 33.9281 26.909 33.9604 26.9279L34.0082 26.9516L34.1306 27.0022L34.1504 27.1104C34.2053 27.4152 33.9968 27.5854 33.8669 27.6605Z" fill="#1C1C1C"/>
<path d="M50.1214 22.207L49.9848 21.9776L49.9674 21.9487L49.8794 21.9748L49.9457 21.9104L49.8509 21.7469L49.845 21.7505L49.8253 21.76L49.8379 21.7521L49.8391 21.7501L49.9236 21.6999L49.9256 21.6987L50.0314 21.8279L50.061 21.7991L50.3059 21.5617L50.313 21.5653V21.5661L50.3153 21.5665L50.3205 21.5696C50.4405 21.6356 50.4543 21.741 50.4611 21.7923L50.4634 21.8066L50.5187 21.9945L50.2628 22.1284L50.236 22.1462L50.2344 22.147L50.1838 22.1762L50.1834 22.177L50.1791 22.179L50.1759 22.1813L50.1214 22.207ZM49.8197 21.7631L49.8193 21.7623L49.8209 21.7619L49.8253 21.76L49.8197 21.7631Z" fill="#1C1C1C"/>
<path d="M53.907 44.0386C53.8825 43.9782 53.8773 43.9095 53.8943 43.8341L53.8987 43.8179L53.9066 43.7918L54.2663 43.8037L54.373 43.8068L54.4559 43.7618L54.5128 43.731L54.5116 43.7318L54.5096 43.733L54.4662 43.7748L54.5937 43.8139L54.5933 43.8151H54.5929L54.5858 43.8155L54.5933 43.8163V43.8171L54.6253 43.8281L53.907 44.0386Z" fill="#1C1C1C"/>
<path d="M50.6492 44.0367H50.648L50.6275 44.024L50.5564 43.9731L50.5145 43.9439L50.9703 43.455L51.0461 43.4913V43.4917L51.0469 43.4925L51.0492 43.4937L51.1334 43.5525L51.174 43.5817L50.911 43.8096L50.6492 44.0367Z" fill="#1C1C1C"/>
<path d="M49.178 45.3553L49.0934 45.3135L49.0654 45.2973L49.0555 45.2925L49.016 45.2716L49.1341 45.1267L49.3975 44.7559L49.2182 45.0173L49.4137 44.7606L49.4287 44.7657L49.512 44.7993L49.514 44.8009L49.5152 44.8005L49.5847 44.8392L49.6349 44.866L49.407 45.1105L49.178 45.3553Z" fill="#1C1C1C"/>
<path d="M60.4201 17.0719L60.317 16.7192L61.1353 16.4795L61.1922 16.4748C61.2218 16.4724 61.2506 16.4712 61.2787 16.4712C61.5693 16.4712 61.7715 16.5877 61.8098 16.786L61.8145 16.8156L61.8165 16.8334L61.2127 16.9416L61.1069 16.9601L61.0741 16.966L61.0745 16.9692L61.0753 16.9716L61.1203 17.0142V17.0138L61.1377 17.019L61.1345 17.0186L61.1377 17.0194H61.1191L60.4201 17.0719Z" fill="#1C1C1C"/>
<path d="M59.6562 7.74297L59.313 7.38044L59.2534 7.36346L59.2636 7.34648L59.2929 7.35754L59.2759 7.34727L59.2873 7.352L59.2834 7.34964L59.2861 7.35042L59.268 7.34253L59.2672 7.34332V7.34292V7.34213L59.2735 7.33186L59.279 7.32199H59.2873L59.2937 7.31488L59.3098 7.32357L59.9954 7.352L59.9512 7.4531L59.9164 7.50602L59.8805 7.55618L59.8505 7.58855C59.7952 7.64819 59.7292 7.69992 59.6562 7.74297Z" fill="#1C1C1C"/>
<path d="M51.4612 25.4928C51.4576 25.3724 51.5113 25.1903 51.7826 25.0099L51.8304 24.9779L51.8857 24.9566L51.9765 24.9258C52.0745 24.8973 52.1697 24.8831 52.2597 24.8831C52.4208 24.8831 52.5638 24.9285 52.6728 25.0174L52.6668 25.0205L52.5673 25.0892L52.3714 25.2231H52.3718L52.5571 25.0968L52.4042 25.2026L52.6743 25.0201L52.3726 25.2243L52.3746 25.2251L52.6759 25.0213L52.375 25.2255L52.3758 25.2263L52.6783 25.0237L52.3797 25.2255L52.6822 25.0265L52.4109 25.2081L52.6846 25.0288L52.3797 25.2287L52.3805 25.229L52.6858 25.0304L52.4248 25.2018L52.6882 25.032L52.3829 25.2302V25.231L52.6897 25.0328L52.4192 25.2093L52.6917 25.0351L52.3845 25.2314H52.3857L52.6941 25.0363L52.3884 25.2314L52.6953 25.0375L52.3932 25.2369L52.191 25.3594L52.1922 25.3602L52.2163 25.3807V25.3811V25.3819L52.1929 25.4L52.1933 25.3977L52.1941 25.3985L52.2016 25.3811L52.2036 25.3744L52.1566 25.3823H52.1531L52.1144 25.4064L52.1503 25.3823L52.1483 25.3827L52.1136 25.4052L52.1053 25.4099L52.0796 25.4261L52.078 25.4273V25.4253L52.1404 25.3846L52.1112 25.4028L52.0804 25.4233L52.1108 25.4016L52.1045 25.3902L51.4612 25.4928ZM52.1381 25.3842L52.1152 25.4L52.1388 25.3842H52.1381ZM52.0772 25.4253L52.0776 25.4249L52.0804 25.4233L52.078 25.4249L52.0772 25.4253ZM52.5571 25.0968L52.5673 25.0892L52.6728 25.0174L52.5571 25.0968Z" fill="#1C1C1C"/>
<path d="M28.3045 40.4482C28.0139 40.4482 27.8051 40.3269 27.7627 40.1251L27.7619 40.1196L28.1288 40.03L28.3937 39.9648L28.3841 39.9123L28.3883 39.9214L28.3867 39.9115L28.4024 39.962L28.4106 39.9593L28.4006 39.9083L28.4206 39.9577L28.4422 39.9526L28.4399 40.0015L28.6035 40.3941L28.5456 40.4126L28.4715 40.1599L28.4695 40.1603L28.47 40.1619L28.5414 40.4043L28.5436 40.4134L28.4723 40.432L28.3952 40.4446C28.3642 40.447 28.334 40.4482 28.3045 40.4482Z" fill="#1C1C1C"/>
<path d="M25.1108 35.7454L24.4444 35.6072L24.4436 35.6076L24.4465 35.604C24.4493 35.5938 24.4527 35.5689 24.4493 35.5282C24.4182 35.4816 24.3694 35.4251 24.3147 35.4141L24.2943 35.4125L24.435 34.8652C24.4371 34.8652 24.4393 34.8652 24.4414 34.8652C24.7625 34.8652 25.003 34.9978 25.1566 35.2589L25.1733 35.2845L25.179 35.3161C25.2114 35.4749 25.1883 35.6198 25.1108 35.7454ZM24.4435 35.6076H24.4431H24.4436H24.4435Z" fill="#1C1C1C"/>
<path d="M35.8697 32.151L35.6548 31.963L35.5174 31.8418L35.444 31.7743L35.4317 31.7837L35.4246 31.7885L35.3903 31.8347L35.3875 31.7984L35.0846 30.5031L36.1042 31.5504L36.1173 31.5958L36.1197 31.6048C36.1631 31.792 36.0975 31.9686 35.938 32.1013L35.8697 32.151Z" fill="#1C1C1C"/>
<path d="M26.7842 20.9335L26.8308 20.8115C26.9033 20.817 26.9627 20.8332 27.0136 20.8526L27.0172 20.8538L27.019 20.8545L27.0206 20.8553C27.025 20.8569 27.0295 20.8589 27.034 20.8605L26.7842 20.9335Z" fill="#1C1C1C"/>
<path d="M44.649 30.0266C44.4709 29.9863 44.3382 29.8931 44.2651 29.7569L44.9637 29.4737L44.9878 29.5002H44.9882L44.9894 29.4998L44.649 30.0266Z" fill="#1C1C1C"/>
<path d="M23.2692 41.4819C23.2302 41.3839 23.1998 41.3646 23.1962 41.3634L23.5862 40.8504C23.8372 40.9227 23.9339 41.1067 23.9861 41.2378L23.6274 41.3602L23.2692 41.4819Z" fill="#1C1C1C"/>
<path d="M37.0561 17.5868L36.8298 17.5824L36.333 17.5757L36.3338 17.5698L36.3638 17.4955L36.3654 17.494V17.4928L36.4104 17.4098L36.438 17.3613L36.4886 17.2475L36.6284 17.1788C36.7631 17.1129 36.9044 17.0793 37.0316 17.0793C37.0979 17.0793 37.1603 17.0884 37.2164 17.1073L36.9653 17.4158L37.1394 17.4331V17.4335L37.0841 17.5366L37.0561 17.5868Z" fill="#1C1C1C"/>
<path d="M43.9106 36.5688L43.4861 36.1913L43.4731 36.202L43.4561 36.2253L43.4557 36.2256L43.4505 36.1866L43.8115 36.0716L44.1732 35.9571C44.2502 36.1838 44.1519 36.412 43.9106 36.5688Z" fill="#1C1C1C"/>
<path d="M40.2086 44.7206L40.3314 44.5662L40.331 44.5654L40.149 44.2459L40.2556 44.2084L40.2872 44.2013C40.3373 44.1902 40.3879 44.1847 40.4369 44.1847C40.4811 44.1847 40.5245 44.1894 40.566 44.1985L40.5699 44.1997L40.6169 44.2131L40.6458 44.2242L40.3476 44.5579L40.412 44.7091L40.3634 44.6246L40.3709 44.6511L40.3847 44.7182L40.3429 44.5887L40.3413 44.578L40.3385 44.5685L40.3342 44.5741L40.3338 44.5729L40.2986 44.6135L40.2086 44.7206Z" fill="#1C1C1C"/>
<path d="M7.20084 22.9263L7.16739 22.9117L7.10136 22.6573L7.03549 22.4026C7.13066 22.3769 7.22445 22.3643 7.31453 22.3643C7.45153 22.3643 7.58019 22.3935 7.69262 22.452L7.73582 22.4757L7.7363 22.4761L7.20084 22.9263Z" fill="#1C1C1C"/>
<path d="M48.8877 14.4562L48.8763 14.4139L49.5046 14.2725L49.5527 14.2611L48.8877 14.4562Z" fill="#1C1C1C"/>
<path d="M18.3757 33.2751L18.2469 32.7669C18.2076 32.7858 18.1667 32.8407 18.1729 32.8711L17.8204 32.1773L18.7753 32.4873L18.8519 32.5465L18.8729 32.5864C18.9581 32.753 18.9007 32.8936 18.84 32.9821C18.7714 33.0808 18.6616 33.1645 18.5215 33.2238C18.4903 33.2384 18.4555 33.251 18.4197 33.2625L18.3976 33.2688L18.3757 33.2751Z" fill="#1C1C1C"/>
<path d="M21.4841 30.8933L21.4019 30.8332L21.3047 30.7685L21.5392 30.5363C21.4943 30.6421 21.4759 30.761 21.4841 30.8933ZM21.5497 30.513L21.5073 30.4794L21.5765 30.4304L21.6003 30.4233C21.5939 30.4328 21.5879 30.4427 21.5819 30.4526C21.5702 30.4719 21.5594 30.492 21.5497 30.513Z" fill="#1C1C1C"/>
<path d="M46.4077 42.999L46.4148 42.9469L46.433 42.8573L46.4401 42.828L46.4417 42.8217L46.4436 42.8095L46.444 42.8075V42.8071L46.931 42.7388L46.9918 42.7297L47.1861 42.7028L47.1786 42.7731L46.4077 42.999Z" fill="#1C1C1C"/>
<path d="M30.4741 50.9051L29.0477 50.6243L31.1824 50.4676C31.3894 50.4521 31.5591 50.415 31.6636 50.3601L31.7907 50.5193L30.4741 50.9051Z" fill="#1C1C1C"/>
<path d="M84.6309 33.6092L84.4635 33.1108L84.4856 33.1033L84.5128 33.0267L84.4943 33.0093L84.4931 33.0085L84.9223 32.5094C85.0566 32.558 85.1561 32.6436 85.2233 32.7609L85.2367 32.7858L85.2418 32.8131C85.3066 33.1207 85.119 33.4086 84.7529 33.5634C84.7154 33.5796 84.6747 33.5954 84.6309 33.6092Z" fill="#1C1C1C"/>
<path d="M48.8513 20.0059L48.6073 19.8401L48.362 19.6746L48.3541 19.6829C48.3557 19.6798 48.3794 19.6395 48.3692 19.5332C48.3241 19.3622 48.276 19.3528 48.2732 19.352L48.4169 19.0826L48.8778 18.9476C49.035 19.074 49.0808 19.2513 49.1037 19.3445L49.1084 19.3701C49.1207 19.4791 49.1136 19.5798 49.0871 19.6699C49.0488 19.8018 48.9702 19.9139 48.8513 20.0059Z" fill="#1C1C1C"/>
<path d="M60.1452 40.9277L59.5857 40.6674L59.5722 40.6706L59.5857 40.667L59.5845 40.6663L59.5837 40.6655L60.2685 40.4463L59.9561 40.5494L60.2696 40.4495V40.4502L60.2787 40.4759V40.4775C60.3233 40.6374 60.2771 40.7962 60.1452 40.9277Z" fill="#1C1C1C"/>
<path d="M23.779 29.2169L23.396 28.8133L23.4828 28.7683L23.4849 28.7675C23.5544 28.7359 23.6242 28.7122 23.6829 28.6917L23.777 28.6593L23.8314 28.6526C23.8849 28.6451 23.939 28.6392 23.9945 28.6356L23.9983 28.6352C24.0193 28.6341 24.0408 28.6333 24.0622 28.6333C24.0813 28.6333 24.1003 28.6337 24.119 28.6352L24.121 28.6348L24.124 28.6356L24.1284 28.6352L24.1302 28.6356L24.1557 28.638L23.9251 29.1616L23.9266 29.1644L23.9235 29.1652L23.9166 29.1802L23.9104 29.181L23.8687 29.1838L23.7827 29.2146L23.7793 29.2165L23.779 29.2169Z" fill="#1C1C1C"/>
<path d="M25.0613 17.5534C24.8041 17.5534 24.5738 17.4578 24.3378 17.3034L26.5934 16.6427C26.124 17.0897 25.7738 17.3914 25.3899 17.504C25.2745 17.5376 25.1657 17.5534 25.0613 17.5534Z" fill="#1C1C1C"/>
<path d="M20.6988 36.9619C20.6218 36.9382 20.544 36.9133 20.4655 36.8868C20.4493 36.8813 20.4331 36.8758 20.4169 36.8699L20.4456 36.8165L20.4722 36.8205L20.4745 36.8213C20.5575 36.8359 20.6295 36.8568 20.6943 36.875L20.7498 36.89H20.7494L20.7498 36.8912L20.6988 36.9619Z" fill="#1C1C1C"/>
<path d="M65.9901 28.7315L65.9893 28.7244C65.9814 28.6656 65.9933 28.6075 66.0012 28.5621L66.0083 28.5187L66.0154 28.3647L66.2022 28.264C66.3356 28.1905 66.4782 28.1518 66.6085 28.151C66.6125 28.151 66.6164 28.151 66.6204 28.151C66.6638 28.151 66.7037 28.1558 66.7428 28.1648L66.7436 28.1652L66.7483 28.166L66.755 28.1672L66.7614 28.1692L66.7653 28.17V28.1708L66.776 28.1731L66.7772 28.1727C66.864 28.1988 66.9375 28.2438 66.9884 28.3094L66.9505 28.3295V28.3311L66.99 28.3106L67.0038 28.3291L66.9541 28.3528C66.9711 28.4847 66.8463 28.6281 66.6591 28.683C66.6101 28.6972 66.5619 28.7039 66.5165 28.7039C66.481 28.7039 66.447 28.6999 66.4158 28.6928L66.4466 28.6976L66.5398 28.6881L66.56 28.6802L66.5074 28.6206L66.4442 28.6328L66.4075 28.6916L66.398 28.6893L66.3941 28.6881L66.3933 28.6885L66.4328 28.6356L66.3321 28.6545L66.389 28.6873L66.3206 28.6577L66.3179 28.6581L65.9901 28.7315Z" fill="#1C1C1C"/>
<path d="M84.2842 7.09445L84.1001 6.46654L84.1136 6.45904L84.1369 6.46496L85.0819 6.02267L85.1411 6.22406L84.6325 6.68454L85.3082 7.08024L84.2842 7.09445ZM85.6292 5.78295L85.6249 5.76835L85.6675 5.74821L85.6292 5.78295Z" fill="#1C1C1C"/>
<path d="M36.0688 16.4843L35.9938 16.1893L36.0846 16.4799L36.0688 16.4843ZM36.0881 16.4787L36.0028 16.1873L36.04 16.1731L36.5526 16.1913L37.0103 16.2086L36.0881 16.4787Z" fill="#1C1C1C"/>
<path d="M2.18321 31.9977L1.23076 31.8034L1.22753 31.7924L1.27152 31.7272L1.33119 31.647L1.38225 31.5803L1.715 31.6222L1.88549 31.638L2.39065 31.6861L2.38035 31.7075C2.34054 31.7932 2.28269 31.869 2.23332 31.9306L2.18321 31.9977Z" fill="#1C1C1C"/>
<path d="M60.0863 27.4679L59.6803 27.2768L59.2747 27.0844L59.2941 27.0659L59.3 27.06L59.3016 27.0596L59.3032 27.0576L59.3533 27.0066V27.0058L59.3549 27.0055L60.232 27.319L60.2292 27.321L60.1609 27.3944L60.1593 27.396L60.1578 27.3984L60.1562 27.3996L60.1526 27.4027L60.151 27.4039L60.1487 27.4063V27.4079L60.1431 27.411V27.4122L60.0993 27.4568L59.6886 27.2689L59.6827 27.274L60.0863 27.4679Z" fill="#1C1C1C"/>
<path d="M24.567 30.9915C24.4908 30.8936 24.4075 30.8008 24.3174 30.7139L24.3634 30.6614L24.7333 30.8008L24.7351 30.8004L24.567 30.9915Z" fill="#1C1C1C"/>
<path d="M41.1926 34.9573L40.3949 34.8673C40.4415 34.8503 40.4865 34.8326 40.5303 34.8132L40.7183 34.8472L41.206 34.9356L41.1926 34.9573Z" fill="#1C1C1C"/>
<path d="M67.4443 26.0608C67.1525 26.0426 66.9179 25.9364 66.7446 25.7492L66.6912 25.6805L67.6501 25.1995L67.7129 25.2635L67.7417 25.2753L67.7425 25.2765L67.4443 26.0608Z" fill="#1C1C1C"/>
<path d="M19.152 18.986L19.1309 18.9133L19.079 18.9307L19.0624 18.8501L20.0066 18.5733C20.0139 18.5887 20.0203 18.6045 20.0262 18.6211L19.2237 18.8829L19.2654 18.9433L19.152 18.986Z" fill="#1C1C1C"/>
<path d="M88.0753 16.2386L87.3601 16.1209L87.3613 16.1205L87.366 16.1099C87.3886 16.0581 87.3874 15.9823 87.366 15.8994C87.2239 15.6569 87.0612 15.6202 86.9593 15.6202C86.9356 15.6202 86.9151 15.6222 86.8989 15.6241L86.8898 15.6249L86.9162 15.2359L86.9427 14.8462C87.0087 14.8391 87.0841 14.8339 87.1654 14.8339C87.2764 14.8339 87.3988 14.8434 87.5252 14.8711L87.5276 14.8718H87.5287C87.5817 14.8833 87.635 14.8983 87.6879 14.9165L88.0753 16.2386Z" fill="#1C1C1C"/>
<path d="M93.3287 32.3495C93.1672 32.0355 93.0345 31.6213 92.86 31.0759L92.6653 30.4689L92.691 30.4697L92.5243 29.9019L93.5807 30.4788L93.6932 30.54L93.8449 30.5558L93.9132 30.7576C93.978 30.9638 94.0356 31.1446 94.0886 31.303C94.1241 31.4092 94.1577 31.5056 94.1897 31.5929C93.9488 31.8863 93.6593 32.1434 93.3287 32.3495Z" fill="#1C1C1C"/>
<path d="M32.3051 27.971L32.3043 27.9702L32.2964 27.9477L32.2711 27.909L32.264 27.9003L33.1052 27.3008C33.2193 27.3889 33.2987 27.5038 33.3461 27.6432L32.3051 27.971Z" fill="#1C1C1C"/>
<path d="M68.5649 26.3713L67.8584 25.8946L67.8434 25.9073L67.8177 25.9464L67.8165 25.9499C67.8181 25.942 67.8193 25.91 67.7972 25.8623L68.3106 25.6774L68.8239 25.4938C68.9535 25.7963 68.878 26.1012 68.6131 26.3298L68.6004 26.3425L68.5649 26.3713Z" fill="#1C1C1C"/>
<path d="M50.5074 42.6532L50.5078 42.6512L50.5288 42.6405L50.3566 42.4592L51.1571 42.2247L51.1677 42.2673L50.524 42.4127L50.6377 42.6046L50.6358 42.605C50.5955 42.6227 50.5517 42.6385 50.5074 42.6532Z" fill="#1C1C1C"/>
<path d="M36.5509 37.1938L35.8164 36.7424L35.8665 36.7013L35.9491 36.6405L35.9763 36.6208L36.047 36.571L36.0533 36.5655L36.8838 36.9288V36.93L36.838 36.975L36.8376 36.9754L36.8357 36.9762L36.8341 36.9778C36.7685 37.0394 36.6955 37.0903 36.6307 37.1369L36.5533 37.193L36.5529 37.1922L36.5509 37.1938Z" fill="#1C1C1C"/>
<path d="M31.8344 30.8127L31.8213 30.6745L31.7538 30.4442L31.6472 30.0809L31.7601 30.4415L31.6622 30.0766L31.7246 30.0608L31.7941 30.047L31.8213 30.4277L31.8099 30.0438C31.8731 30.0335 31.9359 30.0284 31.9967 30.0284C32.1685 30.0284 32.3272 30.0691 32.4552 30.1485L31.8324 30.6658L31.8336 30.7104L31.86 30.8076L31.8462 30.7594L31.8585 30.8084L31.8367 30.7254L31.8375 30.7306L31.8336 30.7175L31.8348 30.7199L31.8332 30.7144L31.8375 30.8127L31.832 30.71L31.8344 30.8127Z" fill="#1C1C1C"/>
<path d="M75.8117 26.7722C75.7947 26.7398 75.7857 26.7228 75.741 26.7228C75.7221 26.7228 75.6972 26.726 75.6625 26.7323L75.5306 25.9875L75.6115 25.9682C75.7304 25.9464 75.8441 25.9362 75.9511 25.9362C76.2102 25.9362 76.4313 25.9974 76.5956 26.1139C76.4349 26.3031 76.2615 26.4871 76.0751 26.666L75.8117 26.7722Z" fill="#1C1C1C"/>
<path d="M71.722 36.9068L71.6142 36.848L71.5577 36.8678L71.5273 36.8022L70.9491 36.4863C70.9823 36.4559 71.0206 36.4247 71.0609 36.3946L71.0629 36.3927L71.8203 36.1707C72.1125 36.1759 72.3432 36.288 72.4545 36.4831L72.4553 36.4839L72.4561 36.4859L72.4849 36.5435L71.6955 36.8196L71.7642 36.8745L71.7358 36.8555L71.7611 36.8768L71.688 36.8219L71.6762 36.8259L71.752 36.8835L71.7299 36.9009L71.722 36.9068Z" fill="#1C1C1C"/>
<path d="M74.3355 26.6543L73.6665 26.5793L73.5824 26.4225C73.5129 26.2957 73.5093 26.18 73.5307 26.0868C73.5421 26.0363 73.5619 25.9912 73.5824 25.9537L73.5931 25.9352L74.1594 26.0501L74.2632 25.8262L74.2636 25.8258L74.6937 25.8736L74.3355 26.6543ZM74.5843 26.0074L74.3849 26.09L74.5618 26.1208L74.5859 26.0532L74.5843 26.0074Z" fill="#1C1C1C"/>
<path d="M9.57234 25.9291L9.19777 25.4489L9.09798 25.3194L9.08902 25.3107L9.06465 25.3289L9.04862 25.3514L9.04814 25.3016L9.00281 25.0335L9.87267 24.7788L10.0786 24.9387L10.1087 25.0406L10.1099 25.0548C10.1653 25.3755 9.99533 25.6795 9.65409 25.8829L9.57234 25.9291ZM8.90313 24.4451L8.82138 23.9625L9.29528 24.3301L8.90313 24.4451Z" fill="#1C1C1C"/>
<path d="M30.0752 34.8041C30.0709 34.8021 30.0669 34.8001 30.0627 34.7985L30.0604 34.7989V34.7981C29.8169 34.6848 29.6988 34.4814 29.7549 34.2283C29.8696 34.4092 29.9763 34.6011 30.0752 34.8041Z" fill="#1C1C1C"/>
<path d="M19.2237 52.1334L18.748 51.7231L19.6352 51.4632C19.6357 51.5276 19.6268 51.5912 19.6093 51.6524V51.6532L19.6073 51.6583V51.6615L19.6071 51.6626C19.5731 51.7724 19.5106 51.8755 19.4211 51.9699V51.9703L19.4165 51.9754L19.413 51.9782L19.4111 51.9821L19.4049 51.9873L19.4042 51.9884C19.3645 52.0283 19.3209 52.0654 19.2711 52.101L19.2237 52.1334ZM18.6323 51.1398L18.7339 50.7457C18.7375 50.7457 18.7409 50.7457 18.7443 50.7457C18.8516 50.7457 18.9545 50.7603 19.0489 50.7899L18.8374 51.0794L18.6323 51.1398ZM18.8405 51.0786L19.0629 50.7942C19.1626 50.8254 19.2532 50.8716 19.3357 50.9336L18.8405 51.0786Z" fill="#1C1C1C"/>
<path d="M25.0806 34.5191L25.0781 34.5183L25.0488 34.5009L24.9459 34.4283L24.8861 34.3852L25.5421 33.6803C25.5838 33.6961 25.6185 33.7139 25.6517 33.7332V33.734L25.654 33.7348L25.6556 33.7364C25.7021 33.7636 25.7396 33.7933 25.7774 33.8209L25.8365 33.8639L25.4584 34.1913L25.0806 34.5191Z" fill="#1C1C1C"/>
<path d="M22.9605 36.4195C22.9212 36.4021 22.8795 36.3816 22.8384 36.3587L22.7986 36.3358L22.7836 36.3282L22.7268 36.2986L22.8973 36.0893L23.2767 35.555L23.0184 35.9325L23.2996 35.5629L23.3207 35.57C23.3654 35.585 23.406 35.6008 23.4418 35.6186L23.4434 35.6202L23.4454 35.6198C23.4819 35.6387 23.5159 35.6581 23.5467 35.6751L23.6185 35.7138L23.2899 36.0664L22.9605 36.4195Z" fill="#1C1C1C"/>
<path d="M91.4241 33.0432L91.3155 32.9149L91.4047 32.8683L91.4628 32.8387L91.5951 32.9931L91.4241 33.0432Z" fill="#1C1C1C"/>
<path d="M89.8377 29.3584L89.7283 29.1914L90.6781 28.913L90.4727 28.2108L91.3901 27.7752L90.825 28.6263L90.9671 28.7278L90.4794 29.0887L90.0967 29.3035L90.0387 29.2644L89.8377 29.3584Z" fill="#1C1C1C"/>
<path d="M15.3703 23.7595L14.8708 23.3145L15.7835 23.0471C15.8052 23.3152 15.6584 23.5727 15.3703 23.7595Z" fill="#1C1C1C"/>
<path d="M19.9597 33.5227L19.1472 33.2451L18.9528 33.1432L18.9798 32.9485C18.9865 32.9063 18.9957 32.8624 19.0061 32.8198L19.0164 32.7768L19.0189 32.7685L19.021 32.7507L19.0215 32.7475V32.7467L19.7231 32.6484L19.8105 32.6366L20.0905 32.5963C20.0905 32.6346 20.0871 32.6745 20.0782 32.7159L20.0708 32.7479L20.0592 32.802L20.0446 32.8696L19.9597 33.5227Z" fill="#1C1C1C"/>
<path d="M74.039 19.493L73.7977 18.7763L73.8293 18.7644C73.868 18.749 73.872 18.6957 73.868 18.6542L73.842 18.6298L73.8396 18.6278L74.4588 17.9086C74.6523 17.9789 74.7976 18.1014 74.8924 18.272L74.9122 18.3067L74.9197 18.3466C75.0125 18.7893 74.742 19.2036 74.2144 19.4279C74.1599 19.4516 74.1018 19.4737 74.039 19.493Z" fill="#1C1C1C"/>
<path d="M32.2109 25.5577L32.0668 25.2761C32.1836 25.1118 32.3076 24.9523 32.4392 24.7979C32.4494 24.7979 32.4601 24.7975 32.4703 24.7975C32.6421 24.7975 32.7981 24.8338 32.9288 24.9049L32.2125 25.5573L32.2117 25.5565L32.2109 25.5577Z" fill="#1C1C1C"/>
<path d="M50.1009 44.4729L49.424 44.3296L49.3182 44.3608L49.1219 44.4386L49.2499 44.3861L49.3111 44.3628L49.306 44.3643L49.4055 44.3249H49.4027L49.4039 44.3245L49.6246 44.2348L50.1282 44.031L49.6258 44.238L50.1325 44.0378L50.1617 44.1104L50.1649 44.1211L50.1653 44.1219L50.1661 44.1242L50.1653 44.1286V44.129L50.1696 44.1448V44.1456C50.1913 44.2526 50.1684 44.3647 50.1009 44.4729Z" fill="#1C1C1C"/>
<path d="M9.87765 52.3751L9.30827 52.3546C9.33406 52.2716 9.38002 52.1958 9.41782 52.1346L9.4545 52.0706L9.45482 52.0694L9.79898 52.1066L9.87765 52.3751ZM10.4472 52.2132L10.4359 52.1745L10.4642 52.1776L10.4649 52.1784C10.4594 52.1899 10.4535 52.2013 10.4472 52.2132Z" fill="#1C1C1C"/>
<path d="M47.1816 12.4674L47.1804 12.4571C47.1698 12.3722 47.1871 12.2889 47.1986 12.2229L47.2088 12.1597L47.2195 11.9382L47.4877 11.7932C47.6808 11.6866 47.8857 11.6321 48.0733 11.6302C48.0753 11.6302 48.0773 11.6302 48.0792 11.6302C48.1456 11.6302 48.2068 11.6365 48.2672 11.6503V11.6511L48.2743 11.6523L48.2846 11.6542L48.2937 11.657L48.2996 11.6578V11.659L48.3146 11.6621H48.3154C48.4414 11.6997 48.546 11.7648 48.621 11.8588L48.5658 11.8884L48.5665 11.8908L48.623 11.8604L48.642 11.8868L48.5709 11.9212C48.5958 12.1115 48.4157 12.3177 48.1464 12.3967C48.0749 12.4176 48.0042 12.4271 47.9371 12.4271C47.8873 12.4271 47.8395 12.4219 47.7953 12.4117L47.8403 12.418C47.8478 12.4188 47.8553 12.4188 47.8632 12.4188C47.9015 12.4188 47.9406 12.414 47.9746 12.4042L48.0034 12.3931L47.9284 12.307L47.8379 12.3244L47.7846 12.4097L47.7696 12.4061L47.7641 12.405H47.7633L47.821 12.3287L47.6752 12.3568C47.6835 12.3671 47.7084 12.3888 47.7582 12.4038C47.7222 12.3931 47.6879 12.3777 47.6579 12.3607L47.6543 12.3619L47.1816 12.4674Z" fill="#1C1C1C"/>
</g>
</svg>
