<svg width="14" height="14" viewBox="0 0 14 14" fill="none" xmlns="http://www.w3.org/2000/svg">
<g clip-path="url(#clip0_299_3386)">
<path d="M11.6665 2.47949H2.33321C2.27356 2.47939 2.21452 2.49149 2.15972 2.51507C2.10492 2.53865 2.05554 2.57321 2.0146 2.6166C1.97367 2.65999 1.94205 2.71131 1.92171 2.76739C1.90136 2.82346 1.89271 2.88311 1.8963 2.94266L2.41546 11.7609C2.43969 12.1693 2.61891 12.553 2.91651 12.8337C3.2141 13.1144 3.60763 13.2708 4.01671 13.2712H9.98305C10.392 13.2708 10.7855 13.1144 11.0831 12.8339C11.3806 12.5533 11.5599 12.1698 11.5843 11.7615L12.1035 2.94266C12.107 2.88311 12.0984 2.82346 12.0781 2.76739C12.0577 2.71131 12.0261 2.65999 11.9852 2.6166C11.9442 2.57321 11.8948 2.53865 11.84 2.51507C11.7852 2.49149 11.7262 2.47939 11.6665 2.47949Z" fill="#F44336"/>
<path d="M12.5417 2.3335H1.45833C1.30362 2.3335 1.15525 2.39495 1.04585 2.50435C0.936458 2.61375 0.875 2.76212 0.875 2.91683C0.875 3.07154 0.936458 3.21991 1.04585 3.32931C1.15525 3.4387 1.30362 3.50016 1.45833 3.50016H12.5417C12.6964 3.50016 12.8447 3.4387 12.9541 3.32931C13.0635 3.21991 13.125 3.07154 13.125 2.91683C13.125 2.76212 13.0635 2.61375 12.9541 2.50435C12.8447 2.39495 12.6964 2.3335 12.5417 2.3335Z" fill="#F44336"/>
<path d="M9.3335 0.583496H4.66683C4.51212 0.583496 4.36375 0.644954 4.25435 0.75435C4.14495 0.863747 4.0835 1.01212 4.0835 1.16683C4.0835 1.32154 4.14495 1.46991 4.25435 1.57931C4.36375 1.6887 4.51212 1.75016 4.66683 1.75016H9.3335C9.48821 1.75016 9.63658 1.6887 9.74598 1.57931C9.85537 1.46991 9.91683 1.32154 9.91683 1.16683C9.91683 1.01212 9.85537 0.863747 9.74598 0.75435C9.63658 0.644954 9.48821 0.583496 9.3335 0.583496Z" fill="#F44336"/>
<path d="M5.5415 9.77116C5.42547 9.77116 5.31419 9.72507 5.23214 9.64302C5.1501 9.56097 5.104 9.44969 5.104 9.33366V6.41699C5.104 6.30096 5.1501 6.18968 5.23214 6.10763C5.31419 6.02559 5.42547 5.97949 5.5415 5.97949C5.65754 5.97949 5.76882 6.02559 5.85086 6.10763C5.93291 6.18968 5.979 6.30096 5.979 6.41699V9.33366C5.979 9.44969 5.93291 9.56097 5.85086 9.64302C5.76882 9.72507 5.65754 9.77116 5.5415 9.77116Z" fill="white"/>
<path d="M8.4585 9.77116C8.34246 9.77116 8.23118 9.72507 8.14914 9.64302C8.06709 9.56097 8.021 9.44969 8.021 9.33366V6.41699C8.021 6.30096 8.06709 6.18968 8.14914 6.10763C8.23118 6.02559 8.34246 5.97949 8.4585 5.97949C8.57453 5.97949 8.68581 6.02559 8.76786 6.10763C8.8499 6.18968 8.896 6.30096 8.896 6.41699V9.33366C8.896 9.44969 8.8499 9.56097 8.76786 9.64302C8.68581 9.72507 8.57453 9.77116 8.4585 9.77116Z" fill="white"/>
</g>
<defs>
<clipPath id="clip0_299_3386">
<rect width="14" height="14" fill="white"/>
</clipPath>
</defs>
</svg>
