<svg width="22" height="22" viewBox="0 0 22 22" fill="none" xmlns="http://www.w3.org/2000/svg">
<path d="M8.03329 2.34329C5.20999 3.00554 3.00555 5.20999 2.34329 8.03328C1.88557 9.98461 1.88557 12.0154 2.34329 13.9667C3.00555 16.79 5.21 18.9945 8.03329 19.6567C9.98461 20.1144 12.0154 20.1144 13.9667 19.6567C16.79 18.9945 18.9945 16.79 19.6567 13.9667C20.1144 12.0154 20.1144 9.98461 19.6567 8.03329C18.9945 5.21 16.79 3.00554 13.9667 2.34329C12.0154 1.88557 9.98461 1.88557 8.03329 2.34329Z" stroke="#5F676C" stroke-width="1.5" stroke-linecap="round" stroke-linejoin="round"/>
<path d="M9.33342 10.354C9.51976 9.88816 9.88889 9.51903 10.3547 9.33269L12.2227 8.58553C12.9709 8.28621 13.7135 9.02878 13.4142 9.77707L12.667 11.645C12.4807 12.1108 12.1116 12.48 11.6457 12.6663L9.7778 13.4135C9.02952 13.7128 8.28694 12.9702 8.58626 12.2219L9.33342 10.354Z" stroke="#BD3430" stroke-width="1.5" stroke-linecap="round" stroke-linejoin="round"/>
</svg>
