<svg width="15" height="15" viewBox="0 0 15 15" fill="none" xmlns="http://www.w3.org/2000/svg">
<g clip-path="url(#clip0_0_269)">
<path fill-rule="evenodd" clip-rule="evenodd" d="M2.1536 6.44048C2.1536 4.92334 2.57681 3.88834 3.2336 3.23262C3.88931 2.57584 4.92431 2.15262 6.44146 2.15262C7.95967 2.15262 8.9936 2.57584 9.65038 3.23262C10.3061 3.88834 10.7293 4.92334 10.7293 6.44048C10.7293 7.95869 10.3061 8.99262 9.65038 9.64941C8.9936 10.3051 7.95967 10.7283 6.44146 10.7283C4.92431 10.7283 3.88931 10.3051 3.2336 9.64941C2.57681 8.99262 2.1536 7.95869 2.1536 6.44048ZM6.44146 0.00976562C4.52896 0.00976562 2.88431 0.550837 1.71753 1.71655C0.551814 2.88334 0.0107422 4.52798 0.0107422 6.44155C0.0107422 8.35298 0.551814 9.99869 1.71753 11.1644C2.88431 12.3301 4.52896 12.8712 6.44253 12.8712C7.93396 12.8712 9.26253 12.5423 10.3286 11.8426L13.155 14.6691C13.3571 14.8642 13.6277 14.9722 13.9087 14.9698C14.1896 14.9673 14.4583 14.8547 14.657 14.656C14.8556 14.4573 14.9683 14.1886 14.9707 13.9077C14.9732 13.6268 14.8652 13.3561 14.67 13.1541L11.8447 10.3287C12.5432 9.26155 12.8732 7.93298 12.8732 6.44048C12.8732 4.52798 12.3311 2.88334 11.1654 1.71655C9.9986 0.550837 8.35396 0.00976562 6.44146 0.00976562Z" fill="#525A6C"/>
</g>
<defs>
<clipPath id="clip0_0_269">
<rect width="15" height="15" fill="white"/>
</clipPath>
</defs>
</svg>
