<svg width="27" height="27" viewBox="0 0 27 27" fill="none" xmlns="http://www.w3.org/2000/svg">
<g clip-path="url(#clip0_1189_16760)">
<path d="M11.2039 12.1587H13.0039V13.0589H11.2039V12.1587Z" fill="white"/>
<path d="M26.5688 10.8131L23.5118 10.3765C22.9544 10.0341 22.3759 9.72754 21.7795 9.45854C19.8099 8.56639 17.6722 8.10603 15.5097 8.10841H14.9787C12.4268 8.11024 9.91567 8.7506 7.6743 9.97109L6.13153 10.8127C4.32562 10.833 2.5545 11.3133 0.985545 12.2077C0.347928 12.5734 -0.0457763 13.2518 -0.046875 13.9867V16.6589C-0.046875 16.9076 0.154555 17.109 0.403229 17.109H1.91432C2.40581 18.5112 3.94089 19.2495 5.34302 18.758C6.11487 18.4875 6.72154 17.8807 6.992 17.109H19.0155C19.507 18.5112 21.0421 19.2495 22.4442 18.758C23.2159 18.4875 23.8228 17.8807 24.0932 17.109H24.2547C24.312 17.109 24.3688 17.0982 24.4221 17.077L25.8797 16.4921C26.5309 16.2343 26.9574 15.604 26.955 14.9039V11.2586C26.955 11.0348 26.7904 10.8449 26.5688 10.8131ZM6.21705 16.569C6.018 17.543 5.06706 18.1713 4.09306 17.9722C3.11887 17.7732 2.49059 16.8223 2.68964 15.8481C2.88887 14.8741 3.83981 14.2458 4.81381 14.4448C5.65194 14.6161 6.25367 15.3535 6.25349 16.209C6.25349 16.3299 6.24122 16.4505 6.21705 16.569ZM14.3541 16.209H7.15351C7.15351 14.7177 5.94475 13.5087 4.45344 13.5087C2.96212 13.5087 1.75318 14.7177 1.75318 16.209H0.853151V13.9867C0.8537 13.5745 1.07454 13.1938 1.43235 12.9891C2.90096 12.1506 4.56257 11.7092 6.25349 11.7087H14.3541V16.209ZM14.3541 10.8087H8.01856L8.10536 10.7612C10.0294 9.71564 12.1666 9.12288 14.3541 9.02821V10.8087ZM15.2541 9.00843H15.5088C17.3224 9.00642 19.1195 9.35068 20.8041 10.0229L20.0183 10.8087H15.2541V9.00843ZM23.3183 16.569C23.1192 17.543 22.1683 18.1713 21.1941 17.9722C20.2201 17.7732 19.5918 16.8223 19.7909 15.8481C19.9899 14.8741 20.941 14.2458 21.915 14.4448C22.7532 14.6161 23.3549 15.3535 23.3547 16.209C23.3547 16.3299 23.3424 16.4505 23.3183 16.569ZM26.055 12.1586H24.7048V13.0588H26.055V14.9039C26.0561 15.2355 25.8539 15.534 25.5455 15.6558L24.2547 16.1742C24.2547 16.1328 24.2494 16.0918 24.2467 16.0504C24.2439 16.009 24.243 15.9605 24.2386 15.9155C24.234 15.8704 24.2251 15.8254 24.2179 15.7805C24.2106 15.7355 24.2053 15.6904 24.1963 15.6496C24.1873 15.6086 24.1742 15.5631 24.1624 15.5203C24.1507 15.4776 24.1417 15.4344 24.1282 15.3925C24.1148 15.3507 24.0985 15.3106 24.0833 15.2696C24.0679 15.2288 24.054 15.1865 24.0383 15.1458C24.0225 15.1054 24.0013 15.0685 23.9824 15.0303C23.9636 14.992 23.9451 14.9501 23.924 14.9114C23.9028 14.8728 23.879 14.8398 23.8586 14.8039C23.8385 14.7679 23.8138 14.7268 23.7881 14.69C23.7623 14.653 23.7385 14.6239 23.7138 14.5906C23.6891 14.5573 23.6611 14.5181 23.6323 14.4835C23.6036 14.4489 23.5766 14.4218 23.5486 14.3934C23.5208 14.3652 23.4897 14.3269 23.4587 14.2954C23.4276 14.2639 23.397 14.239 23.3661 14.2112C23.3349 14.1834 23.3016 14.1504 23.2674 14.1211C23.2333 14.092 23.1985 14.0695 23.1644 14.0438C23.1302 14.0182 23.096 13.9907 23.0601 13.9667C23.024 13.9429 22.9835 13.9219 22.9449 13.8966C22.9061 13.8713 22.8746 13.8515 22.8381 13.8323C22.8017 13.8129 22.7563 13.7926 22.7149 13.7728C22.6735 13.753 22.6411 13.7354 22.6028 13.7193C22.5646 13.703 22.5127 13.686 22.4679 13.6699C22.4228 13.6536 22.3935 13.641 22.3552 13.6289C22.304 13.6131 22.2514 13.6018 22.199 13.5888C22.1648 13.5807 22.132 13.5699 22.0974 13.5628C22.0421 13.5514 21.9853 13.5452 21.9291 13.5369C21.8958 13.5325 21.8639 13.5252 21.8306 13.5221C21.7405 13.5131 21.6506 13.5082 21.5561 13.5082C20.0654 13.5097 18.8573 14.7177 18.8559 16.2085H15.2543V11.7085H20.2045C20.3239 11.7085 20.4384 11.6611 20.5226 11.5767L21.6896 10.4097C22.1795 10.6428 22.6557 10.9033 23.1163 11.1901C23.1694 11.2232 23.2287 11.245 23.2908 11.254L26.055 11.6486V12.1586Z" fill="white"/>
</g>
<defs>
<clipPath id="clip0_1189_16760">
<rect width="27" height="27" fill="white"/>
</clipPath>
</defs>
</svg>
