<svg width="22" height="22" viewBox="0 0 22 22" fill="none" xmlns="http://www.w3.org/2000/svg">
<path d="M9.67144 12.3272C10.1681 12.8238 10.5649 13.8529 10.8324 14.7272C10.9988 15.2699 11.7437 15.4043 12.033 14.914C13.1773 12.9749 14.0105 10.9103 14.095 8.96857C14.1022 8.82683 14.0795 8.68516 14.0285 8.55272C13.9776 8.42027 13.8994 8.29999 13.799 8.19963C13.6987 8.09928 13.5784 8.02109 13.4459 7.9701C13.3135 7.91912 13.1718 7.89648 13.0301 7.90364C11.0884 7.98811 9.02378 8.82137 7.08462 9.96567C6.59568 10.2549 6.72879 10.9999 7.2715 11.1663C8.14572 11.4338 9.17481 11.8319 9.67144 12.3272Z" stroke="#BD3430" stroke-width="1.5" stroke-linecap="round" stroke-linejoin="round"/>
<path d="M10.75 20C13.5281 20 15.8043 19.2164 17.3853 17.6353C18.9664 16.0543 19.75 13.7781 19.75 11C19.75 8.22195 18.9664 5.94569 17.3853 4.36467C15.8043 2.78365 13.5281 2 10.75 2C7.97195 2 5.69569 2.78365 4.11467 4.36467C2.53365 5.94569 1.75 8.22195 1.75 11C1.75 13.7781 2.53365 16.0543 4.11467 17.6353C5.69569 19.2164 7.97195 20 10.75 20Z" stroke="#5F676C" stroke-width="1.5" stroke-linecap="round" stroke-linejoin="round"/>
</svg>
